<svg id="svg" version="1.1" xmlns="http://www.w3.org/2000/svg" xmlns:xlink="http://www.w3.org/1999/xlink" width="400" height="384.6153846153846" viewBox="0, 0, 400,384.6153846153846"><g id="svgg"><path id="path0" d="M9.904 237.941 C 9.534 238.047,9.231 238.275,9.231 238.448 C 9.231 238.621,8.841 238.868,8.365 238.997 C 4.271 240.107,5.112 251.068,9.374 252.137 C 9.930 252.277,10.385 252.545,10.385 252.734 C 10.385 252.923,11.942 253.077,13.846 253.077 C 15.897 253.077,17.308 252.920,17.308 252.692 C 17.308 252.481,17.567 252.308,17.885 252.308 C 18.734 252.308,21.538 249.356,21.538 248.462 C 21.538 248.038,21.712 247.692,21.923 247.692 C 22.137 247.692,22.308 246.667,22.308 245.385 C 22.308 244.103,22.137 243.077,21.923 243.077 C 21.712 243.077,21.538 242.658,21.538 242.145 C 21.538 241.306,20.729 240.298,18.580 238.462 C 17.906 237.885,11.452 237.498,9.904 237.941 M265.000 240.769 C 265.000 240.981,264.784 241.155,264.519 241.156 C 264.255 241.157,263.346 241.793,262.500 242.570 L 260.962 243.983 260.962 284.588 L 260.962 325.192 262.308 326.560 C 264.732 329.024,271.238 330.323,271.857 328.467 C 271.929 328.253,272.194 328.077,272.447 328.077 C 273.009 328.077,275.385 325.615,275.385 325.033 C 275.385 324.803,275.558 324.615,275.769 324.615 C 276.023 324.615,276.154 311.026,276.154 284.615 C 276.154 258.205,276.023 244.615,275.769 244.615 C 275.558 244.615,275.380 244.399,275.374 244.135 C 275.360 243.513,273.407 241.599,272.090 240.916 C 270.893 240.295,265.000 240.173,265.000 240.769 M12.692 259.180 C 12.692 259.364,12.010 259.606,11.175 259.718 C 9.681 259.918,6.923 262.039,6.923 262.988 C 6.923 263.213,6.707 263.470,6.442 263.558 C 5.765 263.783,5.735 324.119,6.412 324.537 C 6.659 324.690,6.975 325.246,7.113 325.773 C 7.773 328.291,16.498 330.697,17.212 328.558 C 17.300 328.293,17.617 328.077,17.918 328.077 C 18.621 328.077,21.129 325.426,21.374 324.423 C 21.838 322.530,21.346 263.333,20.865 263.173 C 20.601 263.085,20.385 262.796,20.385 262.532 C 20.385 261.546,17.995 259.896,16.289 259.704 C 15.369 259.600,14.615 259.365,14.615 259.181 C 14.615 258.997,14.183 258.846,13.654 258.846 C 13.125 258.846,12.692 258.996,12.692 259.180 M34.615 259.180 C 34.615 259.364,33.927 259.606,33.085 259.719 C 31.484 259.934,29.534 261.510,28.571 263.367 C 27.942 264.579,27.835 324.615,28.462 324.615 C 28.673 324.615,28.846 324.880,28.846 325.204 C 28.846 325.528,29.099 325.890,29.408 326.009 C 29.718 326.128,30.073 326.546,30.197 326.939 C 30.322 327.332,30.805 327.772,31.270 327.917 C 31.735 328.062,32.239 328.374,32.391 328.610 C 32.556 328.867,33.907 329.038,35.770 329.038 C 37.633 329.038,38.984 328.867,39.149 328.610 C 39.300 328.374,39.813 328.059,40.288 327.911 C 40.764 327.762,41.154 327.510,41.154 327.351 C 41.154 327.192,41.673 326.480,42.308 325.769 L 43.462 324.477 43.462 305.892 C 43.462 295.372,43.609 287.308,43.802 287.308 C 43.989 287.308,44.261 286.356,44.406 285.192 C 44.552 284.029,44.818 283.077,44.997 283.077 C 45.177 283.077,45.438 282.558,45.577 281.923 C 45.716 281.288,45.990 280.769,46.184 280.769 C 46.379 280.769,46.538 280.523,46.538 280.222 C 46.538 279.512,48.742 277.308,49.453 277.308 C 49.754 277.308,50.000 277.146,50.000 276.949 C 50.000 276.752,50.389 276.469,50.865 276.320 C 51.341 276.172,51.845 275.872,51.985 275.654 C 53.447 273.376,64.615 276.828,64.615 279.558 C 64.615 279.801,64.788 280.000,65.000 280.000 C 65.212 280.000,65.385 280.260,65.385 280.577 C 65.385 280.894,65.538 281.154,65.726 281.154 C 65.914 281.154,66.190 281.802,66.339 282.595 C 66.487 283.388,66.810 284.160,67.055 284.312 C 67.380 284.513,67.533 289.965,67.621 304.601 C 67.694 316.679,67.885 324.615,68.102 324.615 C 68.300 324.615,68.462 324.803,68.462 325.033 C 68.462 325.633,70.846 328.077,71.431 328.077 C 71.702 328.077,71.923 328.238,71.923 328.434 C 71.923 328.942,75.792 329.360,77.626 329.050 C 78.719 328.865,79.710 328.278,81.027 327.034 L 82.885 325.280 82.992 307.448 C 83.051 297.640,83.244 289.615,83.421 289.615 C 83.598 289.615,83.829 288.406,83.935 286.929 C 84.041 285.451,84.300 284.023,84.511 283.756 C 84.721 283.488,85.016 282.759,85.166 282.135 C 85.315 281.511,85.838 280.629,86.328 280.176 C 86.817 279.722,87.336 278.978,87.481 278.522 C 87.626 278.065,87.980 277.692,88.268 277.692 C 88.556 277.692,89.028 277.456,89.317 277.166 C 89.607 276.877,90.268 276.507,90.787 276.345 C 91.306 276.183,91.854 275.857,92.005 275.621 C 92.503 274.843,99.980 275.060,100.431 275.865 C 100.638 276.236,100.984 276.538,101.200 276.538 C 101.417 276.538,101.817 276.755,102.089 277.019 C 102.362 277.284,103.128 277.977,103.793 278.561 C 104.457 279.144,105.000 279.880,105.000 280.195 C 105.000 280.511,105.165 280.769,105.367 280.769 C 105.569 280.769,105.854 281.418,106.000 282.212 C 106.145 283.005,106.456 283.777,106.690 283.928 C 106.989 284.121,107.150 290.084,107.231 304.024 C 107.294 314.926,107.492 323.846,107.670 323.846 C 107.848 323.846,108.104 324.286,108.239 324.824 C 108.529 325.979,110.305 328.077,110.993 328.077 C 111.258 328.077,111.546 328.293,111.635 328.558 C 111.748 328.897,112.855 329.038,115.385 329.038 C 117.915 329.038,119.022 328.897,119.135 328.558 C 119.223 328.293,119.511 328.077,119.776 328.077 C 120.535 328.077,122.308 325.866,122.560 324.606 C 122.685 323.976,122.940 323.462,123.125 323.462 C 123.313 323.462,123.462 315.046,123.462 304.423 C 123.462 293.952,123.314 285.385,123.133 285.385 C 122.953 285.385,122.693 284.061,122.557 282.443 C 122.420 280.826,122.155 279.311,121.968 279.078 C 121.780 278.845,121.503 278.073,121.351 277.363 C 121.049 275.951,119.336 272.415,118.563 271.607 C 118.296 271.328,118.077 270.852,118.077 270.549 C 118.077 270.247,117.898 270.000,117.680 270.000 C 117.462 270.000,117.170 269.703,117.030 269.340 C 116.665 268.389,112.590 264.235,112.019 264.233 C 111.755 264.232,111.538 264.061,111.538 263.853 C 111.538 263.646,111.106 263.368,110.577 263.235 C 110.048 263.102,109.615 262.853,109.615 262.681 C 109.615 262.509,109.096 262.255,108.462 262.115 C 107.827 261.976,107.308 261.716,107.308 261.538 C 107.308 261.361,106.745 261.095,106.058 260.948 C 105.370 260.801,104.579 260.496,104.299 260.270 C 104.019 260.044,102.331 259.783,100.549 259.689 C 98.766 259.595,97.308 259.368,97.308 259.183 C 97.308 258.998,96.788 258.846,96.154 258.846 C 95.519 258.846,95.000 258.994,95.000 259.174 C 95.000 259.355,93.330 259.602,91.290 259.724 C 89.249 259.845,87.475 260.106,87.347 260.302 C 87.220 260.498,86.466 260.778,85.673 260.923 C 84.880 261.069,84.231 261.340,84.231 261.525 C 84.231 261.710,83.712 261.976,83.077 262.115 C 82.442 262.255,81.923 262.528,81.923 262.723 C 81.923 262.918,81.732 263.077,81.498 263.077 C 81.012 263.077,78.286 265.150,77.071 266.442 C 76.050 267.529,76.030 267.527,74.668 266.250 C 72.549 264.263,70.989 263.077,70.494 263.077 C 70.222 263.077,70.000 262.918,70.000 262.723 C 70.000 262.528,69.481 262.255,68.846 262.115 C 68.212 261.976,67.692 261.710,67.692 261.525 C 67.692 261.340,67.043 261.069,66.250 260.923 C 65.457 260.778,64.707 260.504,64.584 260.315 C 64.461 260.126,62.860 259.866,61.026 259.736 C 59.193 259.607,57.692 259.354,57.692 259.174 C 57.692 258.994,57.173 258.846,56.538 258.846 C 55.904 258.846,55.385 258.994,55.385 259.174 C 55.385 259.355,53.715 259.602,51.674 259.724 C 49.634 259.845,47.860 260.106,47.732 260.302 C 47.604 260.498,46.864 260.775,46.086 260.918 C 45.308 261.061,44.616 261.319,44.547 261.491 C 44.158 262.473,42.329 262.270,41.175 261.116 C 40.384 260.324,39.470 259.856,38.453 259.719 C 37.612 259.606,36.923 259.364,36.923 259.180 C 36.923 258.996,36.404 258.846,35.769 258.846 C 35.135 258.846,34.615 258.996,34.615 259.180 M133.846 259.233 C 133.529 259.420,132.620 259.678,131.827 259.804 C 131.034 259.931,130.385 260.200,130.385 260.402 C 130.385 260.604,130.120 260.769,129.796 260.769 C 129.472 260.769,129.092 261.072,128.952 261.442 C 128.812 261.813,128.471 262.344,128.195 262.624 C 127.918 262.903,127.692 263.455,127.692 263.851 C 127.692 264.246,127.519 264.677,127.308 264.808 C 127.055 264.964,126.923 280.389,126.923 309.830 C 126.923 339.431,127.053 354.615,127.308 354.615 C 127.519 354.615,127.692 355.054,127.692 355.589 C 127.692 356.124,127.936 356.656,128.235 356.771 C 128.533 356.885,128.882 357.399,129.011 357.912 C 129.140 358.426,129.502 358.846,129.815 358.846 C 130.128 358.846,130.385 359.011,130.385 359.213 C 130.385 359.415,131.034 359.684,131.827 359.811 C 132.620 359.938,133.570 360.206,133.937 360.406 C 134.773 360.861,135.769 360.877,135.769 360.435 C 135.769 360.252,136.501 360.003,137.396 359.883 C 138.290 359.763,139.083 359.481,139.158 359.256 C 139.233 359.030,139.452 358.846,139.643 358.846 C 140.203 358.846,141.538 357.566,141.538 357.030 C 141.538 356.760,141.677 356.538,141.846 356.538 C 142.861 356.538,143.077 353.522,143.077 339.336 C 143.077 324.877,143.087 324.690,143.846 324.889 C 144.269 324.999,144.615 325.229,144.615 325.399 C 144.615 325.569,145.135 325.822,145.769 325.962 C 146.404 326.101,146.923 326.374,146.923 326.569 C 146.923 326.764,147.346 326.923,147.862 326.923 C 148.378 326.923,148.902 327.086,149.025 327.285 C 149.148 327.485,150.067 327.768,151.067 327.916 C 152.067 328.063,153.008 328.376,153.159 328.611 C 153.544 329.211,167.231 329.205,167.610 328.604 C 167.761 328.365,168.793 328.046,169.904 327.895 C 171.014 327.744,171.923 327.463,171.923 327.272 C 171.923 327.080,172.259 326.923,172.670 326.923 C 173.080 326.923,173.515 326.763,173.636 326.568 C 173.756 326.373,174.372 326.099,175.004 325.961 C 175.637 325.822,176.154 325.563,176.154 325.385 C 176.154 325.207,176.659 324.950,177.276 324.815 C 177.893 324.679,178.493 324.319,178.610 324.015 C 178.726 323.711,179.010 323.462,179.240 323.462 C 179.469 323.462,180.210 322.943,180.886 322.309 C 181.562 321.676,182.251 321.157,182.417 321.156 C 182.829 321.153,185.000 318.902,185.000 318.478 C 185.000 318.290,185.519 317.617,186.154 316.982 C 186.788 316.348,187.308 315.651,187.308 315.433 C 187.308 315.216,187.524 314.900,187.788 314.731 C 188.351 314.371,189.158 313.169,189.479 312.212 C 189.603 311.841,189.856 311.538,190.040 311.538 C 190.225 311.538,190.486 310.846,190.622 310.000 C 190.757 309.154,191.005 308.462,191.172 308.462 C 191.340 308.462,191.598 307.899,191.745 307.212 C 191.892 306.524,192.161 305.776,192.343 305.548 C 192.525 305.321,192.790 303.893,192.931 302.375 C 193.072 300.857,193.336 299.615,193.517 299.615 C 193.698 299.615,193.846 297.106,193.846 294.038 C 193.846 290.971,193.698 288.462,193.517 288.462 C 193.336 288.462,193.071 287.214,192.930 285.690 C 192.788 284.165,192.529 282.824,192.353 282.709 C 192.178 282.594,191.915 281.851,191.769 281.058 C 191.623 280.264,191.338 279.615,191.136 279.615 C 190.934 279.615,190.769 279.275,190.769 278.858 C 190.769 277.925,189.282 275.000,188.807 275.000 C 188.617 275.000,188.462 274.740,188.462 274.423 C 188.462 274.106,188.300 273.846,188.103 273.846 C 187.906 273.846,187.624 273.466,187.476 273.002 C 187.329 272.538,186.803 271.716,186.308 271.175 C 185.813 270.635,184.865 269.543,184.202 268.750 C 183.540 267.957,182.834 267.308,182.634 267.308 C 182.434 267.308,181.890 266.911,181.424 266.427 C 180.203 265.157,177.242 263.077,176.655 263.077 C 176.379 263.077,176.154 262.912,176.154 262.710 C 176.154 262.508,175.548 262.229,174.808 262.090 C 174.067 261.951,173.462 261.699,173.462 261.529 C 173.462 261.360,172.726 261.099,171.827 260.948 C 170.928 260.798,170.092 260.518,169.970 260.325 C 169.847 260.133,167.987 259.869,165.835 259.738 C 163.684 259.606,161.923 259.352,161.923 259.173 C 161.923 258.993,161.231 258.846,160.385 258.846 C 159.538 258.846,158.846 258.994,158.846 259.174 C 158.846 259.355,157.177 259.602,155.136 259.724 C 153.095 259.845,151.321 260.109,151.194 260.310 C 151.066 260.511,150.226 260.798,149.327 260.948 C 148.428 261.099,147.692 261.371,147.692 261.555 C 147.692 261.738,147.093 262.001,146.360 262.138 C 145.627 262.276,144.827 262.630,144.582 262.925 C 144.337 263.220,143.898 263.462,143.607 263.462 C 143.315 263.462,143.077 263.635,143.077 263.846 C 143.077 264.058,142.904 264.231,142.692 264.231 C 142.481 264.231,142.308 263.971,142.308 263.654 C 142.308 263.337,142.138 263.077,141.930 263.077 C 141.723 263.077,141.446 262.650,141.315 262.129 C 141.184 261.608,140.705 261.065,140.250 260.923 C 139.795 260.782,139.318 260.503,139.190 260.304 C 139.062 260.105,138.240 259.845,137.363 259.728 C 136.486 259.610,135.769 259.364,135.769 259.180 C 135.769 258.755,134.600 258.787,133.846 259.233 M204.615 259.181 C 204.615 259.365,203.867 259.600,202.952 259.703 C 201.674 259.847,200.940 260.236,199.779 261.387 L 198.269 262.885 198.269 285.303 C 198.269 301.126,198.393 307.801,198.691 307.995 C 198.922 308.146,199.221 308.960,199.355 309.805 C 199.488 310.649,199.774 311.399,199.991 311.471 C 200.207 311.544,200.385 311.997,200.385 312.480 C 200.385 312.963,200.731 313.798,201.154 314.336 C 201.577 314.874,201.923 315.503,201.923 315.734 C 201.923 315.965,202.096 316.154,202.308 316.154 C 202.519 316.154,202.692 316.401,202.692 316.703 C 202.692 317.005,203.125 317.592,203.654 318.008 C 204.183 318.424,204.615 318.941,204.615 319.158 C 204.615 319.639,207.420 322.692,207.863 322.692 C 208.038 322.692,208.563 323.105,209.030 323.609 C 209.498 324.113,210.253 324.644,210.709 324.789 C 211.165 324.933,211.538 325.199,211.538 325.380 C 211.538 325.560,212.058 325.822,212.692 325.962 C 213.327 326.101,213.846 326.374,213.846 326.569 C 213.846 326.764,214.264 326.923,214.776 326.923 C 215.287 326.923,215.764 327.100,215.836 327.317 C 215.909 327.533,216.659 327.820,217.503 327.953 C 218.348 328.087,219.162 328.385,219.313 328.617 C 219.727 329.253,233.152 329.197,233.365 328.558 C 233.454 328.293,233.901 328.078,234.359 328.079 C 235.407 328.081,238.846 326.866,238.846 326.493 C 238.846 325.658,241.230 325.737,242.069 326.600 C 244.338 328.930,244.612 329.039,248.238 329.037 C 250.631 329.035,251.716 328.890,251.828 328.556 C 251.915 328.292,252.169 328.077,252.390 328.077 C 252.612 328.077,253.420 327.428,254.185 326.635 L 255.577 325.192 255.577 294.313 C 255.577 272.020,255.458 263.357,255.148 263.159 C 254.912 263.008,254.609 262.538,254.475 262.115 C 254.102 260.936,251.877 259.615,250.265 259.615 C 249.484 259.615,248.846 259.442,248.846 259.231 C 248.846 259.019,248.413 258.846,247.885 258.846 C 247.356 258.846,246.923 258.996,246.923 259.180 C 246.923 259.364,246.257 259.603,245.443 259.713 C 244.462 259.844,243.523 260.342,242.655 261.190 C 240.067 263.718,240.204 262.534,240.076 283.558 C 240.012 294.082,239.818 302.692,239.645 302.692 C 239.471 302.692,239.218 303.385,239.083 304.231 C 238.948 305.077,238.666 305.769,238.457 305.769 C 238.248 305.769,238.077 306.034,238.077 306.358 C 238.077 306.682,237.817 307.047,237.500 307.169 C 237.183 307.290,236.923 307.606,236.923 307.870 C 236.923 308.557,235.267 310.248,234.291 310.558 C 233.835 310.703,233.462 310.982,233.462 311.180 C 233.462 311.377,233.202 311.538,232.885 311.538 C 232.567 311.538,232.308 311.709,232.308 311.919 C 232.308 312.128,231.615 312.409,230.769 312.545 C 229.923 312.680,229.231 312.942,229.231 313.126 C 229.231 313.311,227.933 313.462,226.346 313.462 C 224.760 313.462,223.462 313.311,223.462 313.126 C 223.462 312.942,222.769 312.680,221.923 312.545 C 221.077 312.409,220.385 312.128,220.385 311.919 C 220.385 311.709,220.198 311.538,219.970 311.538 C 219.430 311.538,216.376 308.469,216.047 307.596 C 215.908 307.226,215.623 306.923,215.414 306.923 C 215.206 306.923,214.916 306.274,214.770 305.481 C 214.624 304.688,214.313 303.915,214.079 303.764 C 213.780 303.572,213.619 297.660,213.538 283.860 C 213.475 273.064,213.277 264.231,213.099 264.231 C 212.921 264.231,212.677 263.841,212.556 263.365 C 212.090 261.532,210.074 259.894,208.044 259.699 C 207.004 259.599,206.154 259.366,206.154 259.182 C 206.154 258.997,205.808 258.846,205.385 258.846 C 204.962 258.846,204.615 258.997,204.615 259.181 M302.692 259.183 C 302.692 259.368,301.234 259.595,299.451 259.689 C 297.669 259.783,295.981 260.044,295.701 260.270 C 295.421 260.496,294.630 260.801,293.942 260.948 C 293.255 261.095,292.692 261.361,292.692 261.538 C 292.692 261.716,292.173 261.976,291.538 262.115 C 290.904 262.255,290.385 262.516,290.385 262.697 C 290.385 262.877,290.066 263.126,289.676 263.250 C 288.675 263.568,284.362 267.826,284.052 268.803 C 283.910 269.250,283.647 269.615,283.466 269.615 C 283.286 269.615,283.024 270.135,282.885 270.769 C 282.745 271.404,282.484 271.923,282.305 271.923 C 282.125 271.923,281.859 272.875,281.714 274.038 C 281.569 275.202,281.297 276.154,281.110 276.154 C 280.922 276.154,280.769 277.971,280.769 280.192 C 280.769 282.413,280.920 284.231,281.103 284.231 C 281.287 284.231,281.533 284.948,281.651 285.825 C 281.769 286.701,282.029 287.523,282.230 287.652 C 282.431 287.780,282.718 288.447,282.867 289.135 C 283.016 289.822,283.297 290.385,283.492 290.385 C 283.687 290.385,283.846 290.587,283.846 290.835 C 283.846 291.472,287.996 295.385,288.671 295.385 C 288.979 295.385,289.231 295.558,289.231 295.769 C 289.231 295.981,289.472 296.154,289.767 296.154 C 290.061 296.154,290.402 296.413,290.524 296.731 C 290.645 297.048,291.183 297.308,291.719 297.308 C 292.254 297.308,292.692 297.473,292.692 297.675 C 292.692 297.877,293.300 298.156,294.043 298.295 C 294.785 298.435,295.485 298.697,295.597 298.879 C 295.709 299.060,296.659 299.322,297.708 299.461 C 298.757 299.601,299.615 299.851,299.615 300.019 C 299.615 300.186,300.740 300.444,302.115 300.591 C 303.490 300.738,304.615 301.001,304.615 301.175 C 304.615 301.349,305.394 301.608,306.346 301.751 C 307.298 301.894,308.077 302.164,308.077 302.351 C 308.077 302.539,308.411 302.692,308.819 302.692 C 309.227 302.692,309.820 302.952,310.137 303.269 C 310.455 303.587,310.900 303.846,311.126 303.846 C 311.353 303.846,311.538 304.106,311.538 304.423 C 311.538 304.740,311.712 305.000,311.923 305.000 C 312.135 305.000,312.308 305.952,312.308 307.115 C 312.308 308.279,312.135 309.231,311.923 309.231 C 311.712 309.231,311.538 309.404,311.538 309.615 C 311.538 310.023,310.153 311.538,309.780 311.538 C 309.659 311.538,309.301 311.798,308.984 312.115 C 308.666 312.433,308.073 312.692,307.665 312.692 C 307.257 312.692,306.923 312.865,306.923 313.077 C 306.923 313.301,305.641 313.462,303.846 313.462 C 302.051 313.462,300.769 313.301,300.769 313.077 C 300.769 312.865,300.435 312.692,300.027 312.692 C 299.620 312.692,299.026 312.433,298.709 312.115 C 298.391 311.798,298.033 311.538,297.912 311.538 C 297.540 311.538,296.154 310.023,296.154 309.615 C 296.154 309.404,295.981 309.231,295.769 309.231 C 295.558 309.231,295.385 308.996,295.385 308.710 C 295.385 307.908,293.643 306.214,292.533 305.935 C 291.986 305.798,291.538 305.532,291.538 305.343 C 291.538 305.154,290.327 305.000,288.846 305.000 C 287.365 305.000,286.154 305.154,286.154 305.343 C 286.154 305.532,285.705 305.798,285.156 305.936 C 283.801 306.276,281.538 308.541,281.538 309.558 C 281.538 310.013,281.365 310.385,281.154 310.385 C 280.940 310.385,280.769 311.410,280.769 312.692 C 280.769 313.962,280.920 315.000,281.105 315.000 C 281.289 315.000,281.551 315.692,281.686 316.538 C 281.821 317.385,282.103 318.077,282.312 318.077 C 282.521 318.077,282.692 318.310,282.692 318.594 C 282.692 318.879,283.038 319.425,283.462 319.808 C 283.885 320.191,284.231 320.663,284.231 320.858 C 284.231 321.320,286.373 323.462,286.834 323.462 C 287.029 323.462,287.502 323.808,287.885 324.231 C 288.267 324.654,288.814 325.000,289.098 325.000 C 289.383 325.000,289.615 325.170,289.615 325.377 C 289.615 325.585,290.048 325.863,290.577 325.996 C 291.106 326.129,291.538 326.392,291.538 326.580 C 291.538 326.769,291.778 326.923,292.071 326.923 C 292.365 326.923,293.100 327.182,293.706 327.498 C 294.312 327.814,295.269 328.073,295.833 328.075 C 296.397 328.076,296.931 328.293,297.019 328.558 C 297.139 328.918,298.855 329.038,303.846 329.038 C 308.838 329.038,310.553 328.918,310.673 328.558 C 310.761 328.293,311.295 328.076,311.859 328.075 C 312.423 328.073,313.380 327.814,313.986 327.498 C 314.592 327.182,315.328 326.923,315.621 326.923 C 315.914 326.923,316.154 326.753,316.154 326.546 C 316.154 326.338,316.587 326.060,317.115 325.927 C 317.644 325.794,318.077 325.532,318.077 325.343 C 318.077 325.154,318.323 325.000,318.624 325.000 C 318.925 325.000,319.691 324.481,320.325 323.846 C 320.960 323.212,321.666 322.692,321.893 322.692 C 322.121 322.692,322.313 322.476,322.318 322.212 C 322.324 321.947,322.843 321.226,323.472 320.609 C 324.101 319.992,324.615 319.251,324.615 318.962 C 324.615 318.674,324.876 318.337,325.194 318.215 C 325.513 318.093,325.881 317.320,326.013 316.496 C 326.144 315.673,326.361 315.000,326.494 315.000 C 327.789 315.000,328.672 300.903,327.404 300.481 C 327.139 300.393,326.923 299.902,326.923 299.391 C 326.923 298.880,326.764 298.462,326.569 298.462 C 326.374 298.462,326.101 297.942,325.962 297.308 C 325.822 296.673,325.549 296.154,325.354 296.154 C 325.159 296.154,325.000 295.913,325.000 295.619 C 325.000 294.913,321.042 290.908,320.025 290.585 C 319.588 290.446,319.231 290.190,319.231 290.016 C 319.231 289.841,318.757 289.580,318.177 289.434 C 317.597 289.289,317.035 289.054,316.927 288.912 C 316.505 288.357,314.262 287.308,313.498 287.308 C 313.055 287.308,312.692 287.147,312.692 286.951 C 312.692 286.754,311.740 286.475,310.577 286.330 C 309.413 286.184,308.462 285.929,308.462 285.763 C 308.462 285.596,307.423 285.340,306.154 285.192 C 304.885 285.045,303.846 284.788,303.846 284.621 C 303.846 284.455,303.067 284.201,302.115 284.059 C 301.163 283.916,300.385 283.637,300.385 283.438 C 300.385 283.239,299.995 283.074,299.519 283.070 C 297.098 283.052,296.124 279.260,298.048 277.337 C 300.225 275.159,307.426 274.009,308.005 275.746 C 308.080 275.970,308.348 276.154,308.600 276.154 C 309.096 276.154,310.385 277.499,310.385 278.016 C 310.385 278.642,313.300 281.459,314.578 282.069 C 315.963 282.728,320.385 282.942,320.385 282.349 C 320.385 282.161,320.829 281.895,321.373 281.758 C 322.615 281.447,324.528 279.519,324.844 278.261 C 324.976 277.737,325.238 277.308,325.426 277.308 C 325.873 277.308,325.875 272.803,325.428 272.527 C 325.241 272.411,324.973 271.709,324.834 270.966 C 324.695 270.223,324.415 269.615,324.213 269.615 C 324.011 269.615,323.846 269.371,323.846 269.073 C 323.846 268.336,318.624 263.077,317.893 263.077 C 317.571 263.077,317.308 262.917,317.308 262.720 C 317.308 262.262,315.365 261.293,313.754 260.949 C 313.064 260.801,312.271 260.496,311.991 260.270 C 311.711 260.044,310.024 259.783,308.241 259.689 C 306.459 259.595,305.000 259.368,305.000 259.183 C 305.000 258.998,304.481 258.846,303.846 258.846 C 303.212 258.846,302.692 258.998,302.692 259.183 M358.173 259.872 C 357.274 259.967,356.538 260.187,356.538 260.362 C 356.538 260.537,355.587 260.800,354.423 260.945 C 353.260 261.090,352.308 261.356,352.308 261.536 C 352.308 261.715,351.788 261.976,351.154 262.115 C 350.519 262.255,350.000 262.509,350.000 262.681 C 350.000 262.853,349.552 263.106,349.006 263.243 C 347.982 263.500,347.530 263.798,345.907 265.288 C 345.389 265.764,344.823 266.154,344.650 266.154 C 344.254 266.154,340.000 270.156,340.000 270.528 C 340.000 270.679,339.567 271.269,339.038 271.840 C 338.510 272.410,338.077 273.100,338.077 273.374 C 338.077 273.647,337.828 273.966,337.524 274.083 C 337.219 274.199,336.859 274.800,336.724 275.417 C 336.588 276.034,336.332 276.538,336.154 276.538 C 335.976 276.538,335.716 277.058,335.577 277.692 C 335.438 278.327,335.164 278.846,334.969 278.846 C 334.775 278.846,334.615 279.086,334.615 279.379 C 334.615 279.672,334.357 280.408,334.041 281.014 C 333.725 281.620,333.465 282.577,333.464 283.141 C 333.463 283.705,333.269 284.231,333.035 284.309 C 332.772 284.396,332.528 286.121,332.403 288.775 C 332.290 291.154,332.049 293.191,331.868 293.303 C 331.438 293.569,331.439 295.385,331.869 295.385 C 332.050 295.385,332.290 297.303,332.401 299.648 C 332.512 301.994,332.796 304.104,333.032 304.340 C 333.268 304.576,333.462 305.166,333.462 305.651 C 333.462 306.666,334.661 309.615,335.073 309.615 C 335.225 309.615,335.463 310.221,335.602 310.962 C 335.741 311.702,335.971 312.308,336.112 312.308 C 336.254 312.308,336.575 312.784,336.825 313.365 C 337.931 315.937,345.220 323.846,346.484 323.846 C 346.725 323.846,346.923 324.016,346.923 324.223 C 346.923 324.431,347.356 324.709,347.885 324.842 C 348.413 324.975,348.846 325.219,348.846 325.385 C 348.846 325.550,349.320 325.805,349.900 325.950 C 350.480 326.096,351.042 326.331,351.150 326.473 C 351.564 327.017,353.808 328.077,354.547 328.077 C 354.972 328.077,355.378 328.245,355.449 328.451 C 355.519 328.657,356.832 328.941,358.365 329.083 C 359.899 329.225,361.154 329.489,361.154 329.671 C 361.154 329.852,363.144 330.000,365.577 330.000 C 368.010 330.000,370.000 329.853,370.000 329.672 C 370.000 329.492,371.416 329.236,373.146 329.102 C 374.877 328.969,376.391 328.705,376.512 328.515 C 376.632 328.326,377.466 328.048,378.365 327.898 C 379.264 327.748,380.000 327.467,380.000 327.274 C 380.000 327.081,380.346 326.923,380.769 326.923 C 381.192 326.923,381.538 326.764,381.538 326.569 C 381.538 326.374,382.043 326.104,382.660 325.969 C 383.277 325.833,383.877 325.473,383.994 325.169 C 384.111 324.864,384.409 324.615,384.655 324.615 C 384.902 324.615,385.486 324.203,385.954 323.699 C 386.421 323.195,387.176 322.664,387.632 322.519 C 388.088 322.374,388.464 322.138,388.468 321.993 C 388.471 321.849,388.988 321.125,389.617 320.385 C 391.334 318.364,391.365 318.321,391.642 317.596 C 391.783 317.226,392.064 316.923,392.265 316.923 C 392.466 316.923,392.745 316.404,392.885 315.769 C 393.024 315.135,393.297 314.615,393.492 314.615 C 393.687 314.615,393.846 313.231,393.846 311.538 C 393.846 309.846,393.692 308.462,393.503 308.462 C 393.315 308.462,393.051 308.024,392.917 307.490 C 392.627 306.336,391.543 305.175,390.423 304.820 C 389.979 304.679,389.615 304.402,389.615 304.205 C 389.615 304.008,388.058 303.846,386.154 303.846 C 384.103 303.846,382.692 304.003,382.692 304.231 C 382.692 304.442,382.445 304.615,382.143 304.615 C 381.513 304.615,378.846 307.016,378.846 307.582 C 378.846 307.789,378.500 308.271,378.077 308.654 C 377.654 309.037,377.308 309.583,377.308 309.867 C 377.308 310.152,377.061 310.385,376.759 310.385 C 376.457 310.385,375.869 310.818,375.452 311.348 C 375.035 311.878,374.114 312.424,373.405 312.562 C 372.696 312.700,371.992 313.002,371.841 313.234 C 371.457 313.821,360.455 313.810,360.082 313.221 C 359.931 312.984,359.244 312.667,358.556 312.517 C 357.867 312.368,356.863 311.870,356.326 311.411 C 353.541 309.035,351.264 306.530,350.577 305.087 C 350.154 304.198,349.678 303.468,349.519 303.466 C 349.361 303.464,349.231 303.120,349.231 302.701 C 349.231 301.954,349.611 301.940,371.250 301.836 L 393.269 301.731 394.615 300.364 C 396.928 298.016,397.126 297.326,397.020 291.970 C 396.968 289.323,396.752 286.983,396.540 286.770 C 396.327 286.558,396.154 285.813,396.154 285.115 C 396.154 284.417,395.997 283.846,395.805 283.846 C 395.614 283.846,395.338 282.981,395.192 281.923 C 395.047 280.865,394.790 280.000,394.622 280.000 C 394.454 280.000,394.203 279.394,394.064 278.654 C 393.925 277.913,393.660 277.308,393.475 277.308 C 393.290 277.308,393.024 276.788,392.885 276.154 C 392.745 275.519,392.491 275.000,392.319 275.000 C 392.147 275.000,391.898 274.567,391.765 274.038 C 391.632 273.510,391.354 273.077,391.147 273.077 C 390.939 273.077,390.769 272.850,390.769 272.572 C 390.769 272.294,390.250 271.570,389.615 270.962 C 388.981 270.354,388.462 269.707,388.462 269.525 C 388.462 269.126,386.549 267.308,386.129 267.308 C 385.966 267.308,385.156 266.659,384.330 265.865 C 383.504 265.072,382.148 264.077,381.318 263.654 C 380.487 263.231,379.750 262.755,379.679 262.596 C 379.609 262.438,379.349 262.307,379.103 262.305 C 378.856 262.304,378.155 262.043,377.545 261.725 C 376.936 261.407,375.724 261.035,374.853 260.900 C 373.982 260.764,373.157 260.481,373.020 260.271 C 372.761 259.874,361.120 259.561,358.173 259.872 M165.330 275.662 C 165.466 275.872,166.226 276.162,167.019 276.308 C 167.813 276.454,168.462 276.739,168.462 276.941 C 168.462 277.142,168.642 277.308,168.862 277.308 C 169.883 277.308,174.231 281.194,174.231 282.107 C 174.231 282.384,174.490 282.710,174.808 282.831 C 175.125 282.953,175.385 283.318,175.385 283.642 C 175.385 283.966,175.550 284.231,175.752 284.231 C 175.954 284.231,176.238 284.880,176.384 285.673 C 176.530 286.466,176.812 287.221,177.011 287.351 C 177.210 287.480,177.470 288.994,177.588 290.716 C 177.718 292.613,177.970 293.848,178.228 293.852 C 178.537 293.856,178.536 293.935,178.225 294.141 C 177.990 294.296,177.712 295.782,177.608 297.443 C 177.503 299.104,177.245 300.575,177.034 300.712 C 176.822 300.849,176.530 301.611,176.384 302.404 C 176.238 303.197,175.973 303.846,175.793 303.846 C 175.614 303.846,175.359 304.279,175.227 304.808 C 175.094 305.337,174.816 305.769,174.608 305.769 C 174.401 305.769,174.231 305.965,174.231 306.205 C 174.231 307.015,168.741 311.538,167.758 311.538 C 167.545 311.538,167.308 311.729,167.231 311.961 C 167.154 312.193,166.274 312.475,165.276 312.588 C 164.278 312.700,163.462 312.943,163.462 313.127 C 163.462 313.311,162.163 313.462,160.577 313.462 C 158.990 313.462,157.692 313.308,157.692 313.121 C 157.692 312.934,156.740 312.662,155.577 312.517 C 154.413 312.371,153.462 312.092,153.462 311.895 C 153.462 311.699,153.202 311.538,152.885 311.538 C 152.567 311.538,152.308 311.365,152.308 311.154 C 152.308 310.942,152.084 310.769,151.810 310.769 C 151.115 310.769,146.538 306.250,146.538 305.563 C 146.538 305.253,146.370 305.000,146.163 305.000 C 145.741 305.000,144.231 301.886,144.231 301.015 C 144.231 300.703,144.014 300.377,143.750 300.288 C 143.103 300.073,143.058 288.183,143.702 287.774 C 143.940 287.623,144.256 286.938,144.405 286.250 C 144.554 285.563,144.817 285.000,144.989 285.000 C 145.161 285.000,145.410 284.567,145.543 284.038 C 145.675 283.510,145.954 283.077,146.161 283.077 C 146.369 283.077,146.538 282.858,146.538 282.589 C 146.538 281.817,150.746 277.692,151.534 277.692 C 151.761 277.692,152.047 277.432,152.169 277.113 C 152.292 276.795,153.065 276.426,153.888 276.295 C 154.711 276.163,155.385 275.916,155.385 275.744 C 155.385 274.995,164.847 274.917,165.330 275.662 M368.846 275.754 C 368.952 275.913,369.688 276.162,370.481 276.308 C 371.274 276.454,371.923 276.720,371.923 276.899 C 371.923 277.078,372.356 277.333,372.885 277.466 C 373.413 277.598,373.846 277.877,373.846 278.084 C 373.846 278.292,374.045 278.462,374.288 278.462 C 374.819 278.462,377.308 280.959,377.308 281.492 C 377.308 281.699,377.524 282.099,377.788 282.382 C 378.190 282.812,378.672 283.693,379.906 286.250 C 379.983 286.409,373.042 286.538,364.482 286.538 C 349.108 286.538,348.921 286.529,349.119 285.769 C 349.230 285.346,349.453 285.000,349.615 285.000 C 349.778 285.000,350.012 284.697,350.136 284.327 C 350.758 282.476,355.171 277.857,356.680 277.478 C 357.237 277.339,357.692 277.072,357.692 276.886 C 357.692 276.700,358.385 276.437,359.231 276.302 C 360.077 276.166,360.769 275.915,360.769 275.743 C 360.769 275.036,368.376 275.046,368.846 275.754 " stroke="none" fill="#fcfcfc" fill-rule="evenodd"></path><path id="path1" d="M198.942 39.140 C 197.409 39.209,196.154 39.413,196.154 39.594 C 196.154 39.776,195.115 40.045,193.846 40.192 C 192.577 40.340,191.538 40.602,191.538 40.776 C 191.538 40.950,191.019 41.207,190.385 41.346 C 189.750 41.486,189.231 41.759,189.231 41.954 C 189.231 42.148,188.885 42.308,188.462 42.308 C 188.038 42.308,187.692 42.462,187.692 42.651 C 187.692 42.839,187.245 43.106,186.698 43.243 C 186.151 43.380,185.502 43.662,185.256 43.869 C 183.451 45.384,182.918 45.769,182.622 45.769 C 182.066 45.769,175.470 52.586,175.199 53.440 C 175.061 53.875,174.787 54.231,174.589 54.231 C 174.392 54.231,174.231 54.482,174.231 54.789 C 174.231 55.095,174.014 55.485,173.750 55.654 C 173.187 56.014,172.381 57.216,172.059 58.173 C 171.935 58.543,171.680 58.846,171.494 58.846 C 171.307 58.846,171.153 59.063,171.151 59.327 C 171.150 59.591,170.907 60.272,170.611 60.839 C 170.315 61.407,169.956 62.402,169.813 63.051 C 169.671 63.700,169.417 64.231,169.249 64.231 C 169.082 64.231,168.828 64.961,168.685 65.854 C 168.542 66.747,168.261 67.579,168.060 67.703 C 167.859 67.827,167.583 69.260,167.445 70.887 C 167.307 72.515,167.047 73.846,166.867 73.846 C 166.686 73.846,166.538 75.663,166.538 77.885 L 166.538 81.923 202.692 81.923 L 238.846 81.923 238.846 77.885 C 238.846 75.663,238.698 73.846,238.517 73.846 C 238.336 73.846,238.086 72.620,237.960 71.121 C 237.834 69.622,237.557 68.185,237.344 67.929 C 237.131 67.672,236.841 66.735,236.698 65.846 C 236.556 64.958,236.325 64.231,236.184 64.231 C 236.044 64.231,235.605 63.279,235.209 62.115 C 234.814 60.952,234.359 60.000,234.199 60.000 C 234.038 60.000,233.793 59.481,233.654 58.846 C 233.514 58.212,233.281 57.692,233.134 57.692 C 232.988 57.692,232.443 56.913,231.923 55.962 C 231.403 55.010,230.856 54.231,230.707 54.231 C 230.558 54.231,230.330 53.894,230.199 53.482 C 229.945 52.682,223.203 45.769,222.677 45.769 C 222.504 45.769,222.118 45.525,221.819 45.226 C 221.107 44.514,218.416 43.077,217.794 43.077 C 217.527 43.077,217.308 42.904,217.308 42.692 C 217.308 42.481,217.048 42.308,216.731 42.308 C 216.413 42.308,216.154 42.135,216.154 41.923 C 216.154 41.712,215.938 41.537,215.673 41.536 C 215.409 41.535,214.717 41.286,214.137 40.983 C 213.556 40.680,212.258 40.311,211.252 40.163 C 210.246 40.015,209.337 39.770,209.231 39.620 C 208.987 39.274,202.609 38.977,198.942 39.140 M205.000 53.846 C 205.000 54.058,205.438 54.231,205.974 54.231 C 206.509 54.231,207.047 54.490,207.169 54.808 C 207.290 55.125,207.623 55.385,207.907 55.385 C 208.448 55.385,211.154 57.975,211.154 58.493 C 211.154 58.657,211.457 59.094,211.827 59.464 C 212.672 60.309,212.838 67.323,212.019 67.596 C 211.755 67.684,211.538 67.952,211.538 68.192 C 211.538 68.798,208.025 72.308,207.418 72.308 C 207.146 72.308,206.923 72.481,206.923 72.692 C 206.923 72.904,206.490 73.077,205.962 73.077 C 205.433 73.077,205.000 73.250,205.000 73.462 C 205.000 73.675,203.974 73.846,202.692 73.846 C 201.410 73.846,200.385 73.675,200.385 73.462 C 200.385 73.250,199.952 73.077,199.423 73.077 C 198.894 73.077,198.462 72.904,198.462 72.692 C 198.462 72.481,198.242 72.308,197.974 72.308 C 197.302 72.308,193.846 68.943,193.846 68.288 C 193.846 67.996,193.630 67.684,193.365 67.596 C 192.547 67.323,192.713 60.309,193.558 59.464 C 193.928 59.094,194.231 58.617,194.231 58.404 C 194.231 57.405,198.541 54.231,199.898 54.231 C 200.166 54.231,200.385 54.058,200.385 53.846 C 200.385 53.632,201.410 53.462,202.692 53.462 C 203.974 53.462,205.000 53.632,205.000 53.846 M166.538 130.375 L 166.538 170.365 170.173 174.029 L 173.807 177.692 202.636 177.692 L 231.465 177.692 235.156 174.026 L 238.846 170.359 238.846 130.372 L 238.846 90.385 202.692 90.385 L 166.538 90.385 166.538 130.375 M205.000 98.846 C 205.000 99.058,205.353 99.231,205.785 99.231 C 206.560 99.231,208.312 100.313,209.699 101.649 C 211.201 103.095,211.304 104.988,211.428 133.416 C 211.496 148.916,211.401 161.058,211.209 161.301 C 211.022 161.537,210.760 162.337,210.626 163.077 C 210.287 164.943,208.045 167.299,206.343 167.575 C 205.604 167.695,205.000 167.943,205.000 168.127 C 205.000 168.564,200.493 168.563,200.223 168.127 C 200.109 167.942,199.495 167.687,198.857 167.560 C 197.636 167.316,195.000 164.908,195.000 164.037 C 195.000 163.756,194.784 163.454,194.519 163.365 C 194.140 163.239,194.038 156.876,194.038 133.269 C 194.038 109.662,194.140 103.299,194.519 103.173 C 194.784 103.085,195.000 102.831,195.000 102.610 C 195.000 101.885,197.760 99.583,198.902 99.354 C 199.515 99.232,200.109 98.981,200.223 98.796 C 200.513 98.328,205.000 98.374,205.000 98.846 M151.845 101.635 C 151.494 102.322,151.085 103.317,150.936 103.846 C 150.787 104.375,150.546 104.894,150.401 105.000 C 149.939 105.336,147.692 110.226,147.692 110.896 C 147.692 111.249,147.533 111.538,147.338 111.538 C 147.144 111.538,146.870 112.058,146.731 112.692 C 146.591 113.327,146.318 113.846,146.123 113.846 C 145.929 113.846,145.768 114.063,145.767 114.327 C 145.766 114.591,145.522 115.272,145.226 115.839 C 144.930 116.407,144.571 117.402,144.429 118.051 C 144.286 118.700,144.029 119.231,143.857 119.231 C 143.685 119.231,143.426 119.705,143.280 120.285 C 143.135 120.864,142.900 121.427,142.758 121.535 C 142.248 121.923,141.154 124.308,141.154 125.031 C 141.154 125.437,140.995 125.769,140.800 125.769 C 140.605 125.769,140.332 126.288,140.192 126.923 C 140.053 127.558,139.780 128.077,139.585 128.077 C 139.390 128.077,139.230 128.293,139.228 128.558 C 139.227 128.822,138.984 129.503,138.688 130.070 C 138.392 130.638,138.033 131.633,137.890 132.282 C 137.748 132.931,137.486 133.462,137.308 133.462 C 137.130 133.462,136.870 133.981,136.731 134.615 C 136.591 135.250,136.332 135.769,136.154 135.769 C 135.976 135.769,135.716 136.288,135.577 136.923 C 135.438 137.558,135.164 138.077,134.969 138.077 C 134.775 138.077,134.615 138.510,134.615 139.038 C 134.615 139.567,134.456 140.000,134.261 140.000 C 134.067 140.000,133.793 140.519,133.654 141.154 C 133.514 141.788,133.241 142.308,133.046 142.308 C 132.852 142.308,132.692 142.527,132.692 142.794 C 132.692 143.062,132.346 143.926,131.923 144.716 C 131.500 145.505,131.154 146.498,131.154 146.922 C 131.154 147.346,130.995 147.692,130.800 147.692 C 130.605 147.692,130.332 148.212,130.192 148.846 C 130.053 149.481,129.793 150.000,129.615 150.000 C 129.437 150.000,129.178 150.519,129.038 151.154 C 128.899 151.788,128.648 152.308,128.480 152.308 C 128.312 152.308,128.067 152.985,127.934 153.814 C 127.802 154.642,127.563 155.378,127.404 155.449 C 126.798 155.718,125.769 158.053,125.769 159.161 C 125.769 160.087,126.348 160.904,128.658 163.236 L 131.548 166.154 144.060 166.154 L 156.573 166.154 157.517 165.210 L 158.462 164.266 158.462 133.382 L 158.462 102.498 157.342 101.441 C 155.601 99.797,152.731 99.898,151.845 101.635 M248.558 101.300 L 247.692 102.224 247.692 133.361 C 247.692 163.208,247.722 164.532,248.410 165.326 C 249.119 166.143,249.303 166.154,261.968 166.153 L 274.808 166.152 277.308 163.749 L 279.808 161.346 279.771 159.038 C 279.743 157.244,279.466 156.218,278.526 154.423 C 277.861 153.154,277.315 151.899,277.313 151.635 C 277.310 151.370,277.148 151.154,276.954 151.154 C 276.759 151.154,276.484 150.630,276.344 149.989 C 276.203 149.348,275.586 147.833,274.972 146.623 C 274.358 145.413,273.854 144.207,273.851 143.942 C 273.848 143.678,273.673 143.462,273.462 143.462 C 273.250 143.462,273.077 143.202,273.077 142.885 C 273.077 142.567,272.926 142.308,272.741 142.308 C 272.557 142.308,272.295 141.615,272.160 140.769 C 272.025 139.923,271.757 139.231,271.564 139.231 C 271.372 139.231,271.101 138.712,270.962 138.077 C 270.822 137.442,270.557 136.923,270.371 136.923 C 270.186 136.923,269.921 136.317,269.782 135.577 C 269.643 134.837,269.376 134.231,269.188 134.231 C 269.000 134.231,268.840 134.014,268.833 133.750 C 268.826 133.486,268.486 132.577,268.077 131.731 C 267.668 130.885,267.328 129.976,267.321 129.712 C 267.314 129.447,267.148 129.231,266.954 129.231 C 266.759 129.231,266.486 128.714,266.347 128.081 C 266.208 127.449,265.935 126.833,265.740 126.712 C 265.544 126.592,265.385 126.157,265.385 125.747 C 265.385 125.336,265.225 125.000,265.031 125.000 C 264.836 125.000,264.562 124.481,264.423 123.846 C 264.284 123.212,264.018 122.692,263.833 122.692 C 263.648 122.692,263.383 122.087,263.244 121.346 C 263.105 120.606,262.837 120.000,262.650 120.000 C 262.462 120.000,262.302 119.784,262.295 119.519 C 262.287 119.255,261.947 118.346,261.538 117.500 C 261.130 116.654,260.789 115.745,260.782 115.481 C 260.775 115.216,260.604 115.000,260.402 115.000 C 260.200 115.000,259.921 114.394,259.782 113.654 C 259.643 112.913,259.376 112.308,259.188 112.308 C 259.000 112.308,258.846 112.136,258.846 111.926 C 258.846 111.289,257.530 108.462,257.234 108.462 C 257.082 108.462,256.844 107.856,256.705 107.115 C 256.566 106.375,256.299 105.769,256.111 105.769 C 255.923 105.769,255.767 105.553,255.765 105.288 C 255.762 105.024,255.287 103.856,254.707 102.692 L 253.654 100.577 251.538 100.476 C 249.729 100.390,249.298 100.509,248.558 101.300 M195.000 208.846 L 195.000 234.615 202.692 234.615 L 210.385 234.615 210.385 208.846 L 210.385 183.077 202.692 183.077 L 195.000 183.077 195.000 208.846 M212.019 330.255 C 211.154 330.604,211.340 359.572,212.212 360.234 C 214.897 362.273,215.701 360.347,215.842 351.538 L 215.962 344.038 217.207 342.780 C 217.892 342.087,218.978 341.416,219.619 341.288 C 220.260 341.159,220.878 340.904,220.992 340.720 C 221.263 340.282,223.462 340.283,223.462 340.721 C 223.462 340.906,223.985 341.162,224.625 341.290 C 227.955 341.956,228.846 344.412,228.846 352.916 C 228.846 358.956,228.931 360.000,229.423 360.000 C 229.740 360.000,230.000 360.173,230.000 360.385 C 230.000 360.596,230.346 360.769,230.769 360.769 C 231.192 360.769,231.538 360.596,231.538 360.385 C 231.538 360.173,231.810 360.000,232.143 360.000 C 232.948 360.000,232.826 343.441,232.019 343.173 C 231.755 343.085,231.538 342.687,231.538 342.289 C 231.538 341.409,229.361 338.846,228.614 338.846 C 228.319 338.846,228.077 338.675,228.077 338.466 C 228.077 338.257,227.385 337.975,226.538 337.840 C 225.692 337.705,225.000 337.443,225.000 337.259 C 225.000 336.824,218.951 336.818,218.782 337.253 C 218.712 337.434,218.005 337.701,217.212 337.847 L 215.769 338.112 215.769 334.830 C 215.769 330.576,214.639 329.197,212.019 330.255 M285.846 330.462 C 285.503 330.804,285.385 334.642,285.388 345.365 L 285.391 359.808 286.426 360.288 C 287.675 360.868,288.462 360.906,288.462 360.385 C 288.462 360.173,288.721 360.000,289.038 360.000 C 289.938 360.000,289.907 330.579,289.007 330.233 C 288.004 329.849,286.339 329.969,285.846 330.462 M150.059 331.872 C 149.394 332.449,149.231 333.018,149.231 334.757 C 149.231 336.888,149.213 336.923,148.122 336.923 C 146.899 336.923,146.387 337.915,146.786 339.508 C 146.952 340.168,147.282 340.385,148.119 340.385 L 149.231 340.385 149.231 348.082 C 149.231 353.535,149.371 356.025,149.712 356.621 C 150.723 358.390,152.574 360.000,153.597 360.000 C 154.157 360.000,154.615 360.173,154.615 360.385 C 154.615 360.596,155.308 360.769,156.154 360.769 C 157.000 360.769,157.692 360.596,157.692 360.385 C 157.692 360.173,158.086 360.000,158.568 360.000 C 161.624 360.000,162.343 355.677,159.323 355.458 C 158.117 355.371,157.625 355.498,157.455 355.939 C 157.127 356.794,155.152 356.690,154.231 355.769 C 153.516 355.054,153.462 354.487,153.462 347.708 L 153.462 340.416 156.635 340.304 L 159.808 340.192 159.926 338.558 L 160.044 336.923 156.753 336.923 L 153.462 336.923 153.462 334.437 C 153.462 331.232,152.036 330.158,150.059 331.872 M346.231 332.769 C 345.672 333.328,345.618 334.615,346.154 334.615 C 346.365 334.615,346.538 334.875,346.538 335.192 C 346.538 335.620,346.987 335.769,348.269 335.769 C 349.506 335.769,350.000 335.614,350.000 335.224 C 350.000 334.925,350.214 334.608,350.476 334.521 C 350.852 334.395,350.854 334.146,350.484 333.335 C 349.967 332.198,347.173 331.827,346.231 332.769 M170.000 337.257 C 170.000 337.441,169.278 337.688,168.396 337.806 C 167.514 337.924,166.640 338.293,166.454 338.626 C 166.268 338.959,165.927 339.231,165.696 339.231 C 165.322 339.231,164.265 340.264,162.762 342.097 C 162.484 342.437,162.158 343.316,162.039 344.050 C 161.920 344.784,161.672 345.385,161.488 345.385 C 161.047 345.385,161.054 351.431,161.495 351.704 C 161.682 351.820,161.950 352.522,162.089 353.265 C 162.229 354.008,162.508 354.615,162.710 354.615 C 162.912 354.615,163.077 354.869,163.077 355.178 C 163.077 355.863,166.111 358.846,166.808 358.846 C 167.083 358.846,167.308 359.013,167.308 359.218 C 167.308 359.422,168.177 359.704,169.239 359.845 C 170.302 359.986,171.264 360.252,171.377 360.435 C 171.648 360.872,175.385 360.871,175.385 360.434 C 175.385 360.249,176.286 360.011,177.388 359.905 C 178.489 359.800,179.456 359.518,179.535 359.280 C 179.614 359.041,179.881 358.845,180.128 358.844 C 180.803 358.841,184.231 355.149,184.231 354.425 C 184.231 351.761,181.837 351.569,179.403 354.038 C 178.465 354.990,177.350 355.769,176.925 355.769 C 176.501 355.769,176.154 355.942,176.154 356.154 C 176.154 356.374,175.000 356.538,173.462 356.538 C 171.981 356.538,170.769 356.384,170.769 356.196 C 170.769 356.007,170.314 355.738,169.758 355.599 C 168.586 355.305,167.013 353.769,166.076 352.003 L 165.420 350.769 174.661 350.769 C 182.156 350.769,184.005 350.665,184.451 350.220 C 185.091 349.579,185.237 344.615,184.615 344.615 C 184.404 344.615,184.231 344.282,184.231 343.874 C 184.231 343.466,183.971 342.872,183.654 342.555 C 183.337 342.238,183.077 341.827,183.077 341.641 C 183.077 341.142,180.614 338.846,180.078 338.846 C 179.823 338.846,179.615 338.675,179.615 338.466 C 179.615 338.257,178.923 337.975,178.077 337.840 C 177.231 337.705,176.538 337.443,176.538 337.259 C 176.538 337.074,175.067 336.923,173.269 336.923 C 171.471 336.923,170.000 337.073,170.000 337.257 M195.769 337.259 C 195.769 337.443,195.077 337.705,194.231 337.840 C 193.385 337.975,192.688 338.214,192.682 338.370 C 192.676 338.526,191.978 339.082,191.129 339.606 C 190.281 340.129,189.488 340.951,189.367 341.433 C 189.246 341.914,188.993 342.308,188.804 342.308 C 188.616 342.308,188.462 342.553,188.462 342.853 C 188.462 343.152,188.245 343.470,187.981 343.558 C 187.239 343.805,187.320 352.620,188.077 354.050 C 189.610 356.946,192.944 359.506,195.666 359.880 C 196.581 360.005,197.421 360.256,197.533 360.438 C 197.800 360.870,200.769 360.870,200.769 360.438 C 200.769 360.256,201.706 360.011,202.850 359.893 C 207.816 359.380,212.240 353.500,207.927 353.147 C 206.669 353.044,206.260 353.210,205.367 354.188 C 204.783 354.828,203.854 355.465,203.302 355.603 C 202.751 355.741,202.205 356.008,202.089 356.196 C 201.973 356.385,200.773 356.538,199.423 356.538 C 198.073 356.538,196.873 356.385,196.757 356.196 C 196.641 356.008,196.115 355.746,195.588 355.614 C 193.993 355.214,191.861 352.777,191.636 351.097 C 191.527 350.282,191.287 349.615,191.103 349.615 C 190.920 349.615,190.769 349.183,190.769 348.654 C 190.769 348.125,190.920 347.692,191.104 347.692 C 191.287 347.692,191.536 347.085,191.657 346.342 C 191.777 345.600,192.103 344.756,192.380 344.466 C 192.658 344.177,193.139 343.573,193.450 343.124 C 193.761 342.675,194.237 342.308,194.508 342.308 C 194.779 342.308,195.000 342.142,195.000 341.941 C 195.000 341.739,195.608 341.459,196.350 341.320 C 197.093 341.181,197.796 340.913,197.912 340.726 C 198.184 340.286,200.660 340.281,200.931 340.720 C 201.045 340.904,201.651 341.157,202.279 341.283 C 203.381 341.503,203.976 341.897,206.012 343.750 C 207.018 344.666,207.364 344.744,208.750 344.373 C 209.454 344.184,209.615 343.870,209.615 342.687 C 209.615 341.229,209.458 341.030,206.223 338.408 C 205.944 338.182,205.035 337.905,204.204 337.794 C 203.373 337.682,202.692 337.441,202.692 337.257 C 202.692 337.073,201.135 336.923,199.231 336.923 C 197.327 336.923,195.769 337.074,195.769 337.259 M235.096 337.498 C 234.243 338.468,234.421 359.576,235.288 360.234 C 237.977 362.274,238.846 360.257,238.846 351.979 C 238.846 345.328,238.891 344.906,239.712 343.745 C 241.101 341.780,241.455 341.504,242.881 341.272 C 243.623 341.152,244.231 340.903,244.231 340.719 C 244.231 340.535,244.837 340.385,245.577 340.385 C 246.317 340.385,246.923 340.539,246.923 340.728 C 246.923 340.916,247.371 341.183,247.918 341.320 C 251.108 342.121,251.923 344.485,251.923 352.944 C 251.923 358.960,252.008 360.000,252.500 360.000 C 252.817 360.000,253.077 360.173,253.077 360.385 C 253.077 360.596,253.423 360.769,253.846 360.769 C 254.269 360.769,254.615 360.596,254.615 360.385 C 254.615 360.173,254.892 360.000,255.229 360.000 C 256.198 360.000,255.890 343.142,254.904 342.156 C 254.534 341.786,254.231 341.314,254.231 341.107 C 254.231 340.369,251.325 338.076,250.096 337.843 C 249.409 337.713,248.846 337.453,248.846 337.265 C 248.846 337.077,247.375 336.923,245.577 336.923 C 243.779 336.923,242.308 337.074,242.308 337.259 C 242.308 337.443,241.615 337.705,240.769 337.840 C 239.923 337.975,239.231 338.269,239.231 338.494 C 239.231 338.718,238.971 338.641,238.654 338.324 C 238.337 338.007,238.077 337.562,238.077 337.335 C 238.077 336.729,235.657 336.861,235.096 337.498 M267.308 337.308 C 267.308 337.519,266.858 337.692,266.308 337.692 C 263.682 337.692,258.983 341.552,258.579 344.042 C 258.459 344.780,258.210 345.385,258.027 345.385 C 257.843 345.385,257.692 346.942,257.692 348.846 C 257.692 350.750,257.852 352.308,258.046 352.308 C 258.241 352.308,258.514 352.827,258.654 353.462 C 258.793 354.096,259.067 354.615,259.261 354.615 C 259.456 354.615,259.615 354.850,259.615 355.136 C 259.615 356.036,261.980 358.180,263.558 358.710 C 263.928 358.834,264.231 359.080,264.231 359.257 C 264.231 359.433,265.273 359.695,266.547 359.839 C 267.821 359.983,268.956 360.252,269.070 360.435 C 269.340 360.872,272.308 360.870,272.308 360.434 C 272.308 360.249,273.192 360.013,274.272 359.909 C 275.352 359.805,276.347 359.547,276.483 359.335 C 276.619 359.123,277.085 358.839,277.518 358.704 C 278.331 358.451,281.538 355.645,281.538 355.187 C 281.538 355.045,281.885 354.489,282.308 353.951 C 282.731 353.413,283.077 352.391,283.077 351.679 C 283.077 350.967,283.250 350.385,283.462 350.385 C 283.949 350.385,283.965 347.900,283.483 347.014 C 283.283 346.647,283.015 345.697,282.888 344.904 C 282.761 344.111,282.492 343.462,282.290 343.462 C 282.088 343.462,281.922 343.245,281.921 342.981 C 281.919 342.402,278.305 338.846,277.720 338.846 C 277.493 338.846,277.308 338.675,277.308 338.466 C 277.308 338.257,276.615 337.975,275.769 337.840 C 274.923 337.705,274.231 337.443,274.231 337.259 C 274.231 337.074,272.673 336.923,270.769 336.923 C 268.718 336.923,267.308 337.080,267.308 337.308 M300.769 337.265 C 300.769 337.453,300.163 337.720,299.423 337.859 C 298.683 337.998,298.077 338.258,298.077 338.437 C 298.077 338.616,297.637 338.873,297.099 339.008 C 295.920 339.304,293.846 341.080,293.846 341.794 C 293.846 342.077,293.685 342.308,293.487 342.308 C 293.290 342.308,293.007 342.697,292.859 343.173 C 292.710 343.649,292.396 344.162,292.160 344.313 C 291.889 344.486,291.731 346.083,291.731 348.654 C 291.731 351.224,291.889 352.821,292.160 352.995 C 292.396 353.146,292.717 353.679,292.873 354.180 C 293.215 355.274,296.339 358.348,297.466 358.700 C 297.908 358.837,298.381 359.123,298.517 359.335 C 298.653 359.547,299.648 359.805,300.728 359.909 C 301.808 360.013,302.692 360.249,302.692 360.434 C 302.692 360.618,303.471 360.769,304.423 360.769 C 305.375 360.769,306.154 360.620,306.154 360.438 C 306.154 360.256,307.146 360.005,308.359 359.880 C 309.572 359.755,310.625 359.471,310.699 359.249 C 310.773 359.028,311.071 358.846,311.362 358.846 C 312.037 358.846,316.154 354.715,316.154 354.037 C 316.154 353.756,316.370 353.454,316.635 353.366 C 317.271 353.154,317.319 344.719,316.686 344.313 C 316.451 344.162,316.126 343.606,315.965 343.077 C 315.712 342.247,313.651 340.009,311.842 338.602 C 311.534 338.362,310.561 338.044,309.679 337.895 C 308.798 337.747,308.077 337.467,308.077 337.274 C 308.077 337.081,306.433 336.923,304.423 336.923 C 302.413 336.923,300.769 337.077,300.769 337.265 M328.077 337.259 C 328.077 337.443,327.385 337.705,326.538 337.840 C 325.692 337.975,325.000 338.257,325.000 338.466 C 325.000 338.675,324.807 338.846,324.570 338.846 C 323.907 338.846,321.154 341.754,321.154 342.455 C 321.154 342.797,320.989 343.077,320.787 343.077 C 320.585 343.077,320.306 343.683,320.167 344.423 C 320.028 345.163,319.761 345.769,319.573 345.769 C 319.385 345.769,319.231 346.981,319.231 348.462 C 319.231 349.942,319.381 351.154,319.565 351.154 C 319.748 351.154,319.991 351.841,320.104 352.682 C 320.216 353.522,320.585 354.486,320.924 354.825 C 321.262 355.163,321.538 355.610,321.538 355.818 C 321.538 356.354,323.868 358.418,324.799 358.708 C 325.227 358.841,325.688 359.123,325.824 359.335 C 325.960 359.547,326.956 359.805,328.036 359.909 C 329.116 360.013,330.000 360.249,330.000 360.434 C 330.000 360.618,330.779 360.769,331.731 360.769 C 332.683 360.769,333.462 360.618,333.462 360.434 C 333.462 360.249,334.345 360.013,335.426 359.909 C 336.506 359.805,337.501 359.567,337.637 359.379 C 337.898 359.020,339.466 358.077,339.802 358.077 C 339.911 358.077,340.000 359.029,340.000 360.192 C 340.000 361.356,339.827 362.308,339.615 362.308 C 339.404 362.308,339.231 362.555,339.231 362.857 C 339.231 363.159,338.994 363.643,338.705 363.933 C 338.415 364.222,338.057 364.840,337.909 365.306 C 337.762 365.772,337.405 366.154,337.117 366.154 C 336.829 366.154,336.317 366.431,335.978 366.769 C 335.640 367.107,334.676 367.476,333.836 367.589 C 332.995 367.701,332.308 367.944,332.308 368.128 C 332.308 368.311,331.875 368.462,331.346 368.462 C 330.817 368.462,330.385 368.311,330.385 368.128 C 330.385 367.944,329.653 367.695,328.758 367.575 C 327.864 367.455,327.071 367.173,326.995 366.948 C 326.920 366.723,326.626 366.538,326.342 366.538 C 325.799 366.538,325.494 366.272,323.727 364.262 C 322.864 363.280,322.398 363.056,321.419 363.150 C 318.584 363.425,320.587 368.773,323.922 369.832 C 324.303 369.953,324.615 370.203,324.615 370.387 C 324.615 370.571,325.394 370.839,326.346 370.982 C 327.298 371.124,328.077 371.395,328.077 371.582 C 328.077 371.770,329.375 371.923,330.962 371.923 C 332.548 371.923,333.846 371.773,333.846 371.588 C 333.846 371.404,334.663 371.162,335.660 371.049 C 336.658 370.937,337.538 370.655,337.616 370.422 C 337.693 370.190,337.993 370.000,338.282 370.000 C 338.571 370.000,338.946 369.784,339.116 369.519 C 339.285 369.255,339.758 368.854,340.167 368.628 C 340.576 368.402,341.095 367.886,341.320 367.480 C 341.546 367.074,342.027 366.519,342.388 366.245 C 342.750 365.971,343.159 365.144,343.297 364.408 C 343.436 363.671,343.702 362.974,343.890 362.858 C 344.516 362.471,344.316 338.107,343.681 337.473 C 342.596 336.387,340.396 336.768,340.133 338.087 C 339.908 339.211,338.539 339.442,338.145 338.423 C 338.077 338.246,337.426 337.990,336.699 337.853 C 335.971 337.717,335.281 337.452,335.165 337.264 C 334.892 336.822,328.077 336.817,328.077 337.259 M346.538 348.363 C 346.538 360.322,346.598 360.769,348.181 360.769 C 349.962 360.769,350.018 360.371,349.910 348.387 L 349.808 337.115 348.173 336.997 L 346.538 336.879 346.538 348.363 M361.154 337.265 C 361.154 337.453,360.548 337.720,359.808 337.859 C 359.067 337.998,358.462 338.277,358.462 338.479 C 358.462 338.681,358.202 338.846,357.885 338.846 C 357.152 338.846,354.231 341.742,354.231 342.468 C 354.231 342.768,354.041 343.076,353.808 343.154 C 353.576 343.231,353.293 344.115,353.180 345.118 C 353.067 346.120,352.825 347.034,352.641 347.147 C 352.205 347.416,352.206 350.385,352.642 350.385 C 352.826 350.385,353.069 351.201,353.181 352.199 C 353.294 353.197,353.576 354.077,353.808 354.154 C 354.041 354.232,354.231 354.562,354.231 354.889 C 354.231 355.574,357.606 358.846,358.312 358.846 C 358.570 358.846,358.847 359.041,358.927 359.280 C 359.006 359.518,359.972 359.800,361.074 359.905 C 362.176 360.011,363.077 360.249,363.077 360.434 C 363.077 360.871,366.814 360.872,367.084 360.435 C 367.198 360.252,368.160 359.986,369.222 359.845 C 370.285 359.704,371.154 359.433,371.154 359.243 C 371.154 359.053,371.457 358.800,371.827 358.679 C 374.156 357.922,375.907 354.886,375.151 352.916 C 374.685 351.701,371.154 352.422,371.154 353.733 C 371.154 354.259,369.709 355.347,368.660 355.610 C 368.128 355.743,367.692 356.007,367.692 356.196 C 367.692 356.384,366.481 356.538,365.000 356.538 C 363.462 356.538,362.308 356.374,362.308 356.154 C 362.308 355.942,361.969 355.769,361.554 355.769 C 360.770 355.769,357.692 353.023,357.692 352.323 C 357.692 352.103,357.519 351.923,357.308 351.923 C 357.096 351.923,356.923 351.663,356.923 351.346 C 356.923 350.849,358.197 350.769,366.080 350.769 C 377.115 350.769,376.758 350.897,376.436 347.076 C 376.313 345.617,375.982 343.988,375.702 343.457 C 374.748 341.649,372.886 339.247,372.431 339.239 C 372.182 339.234,371.701 338.954,371.363 338.616 C 371.025 338.278,370.061 337.909,369.220 337.796 C 368.380 337.683,367.692 337.441,367.692 337.257 C 367.692 337.073,366.221 336.923,364.423 336.923 C 362.625 336.923,361.154 337.077,361.154 337.265 M383.077 337.266 C 383.077 337.455,382.640 337.719,382.106 337.853 C 381.091 338.107,379.615 339.361,379.615 339.968 C 379.615 340.162,379.399 340.393,379.135 340.481 C 377.347 341.077,379.055 348.077,380.988 348.077 C 381.256 348.077,381.536 348.261,381.611 348.486 C 381.686 348.712,382.479 348.994,383.374 349.114 C 384.268 349.234,385.000 349.482,385.000 349.666 C 385.000 349.850,385.509 350.000,386.131 350.000 C 386.753 350.000,387.357 350.153,387.473 350.341 C 387.589 350.529,388.252 350.789,388.947 350.919 C 389.871 351.092,390.403 351.513,390.926 352.484 L 391.641 353.811 390.236 355.175 C 388.825 356.545,384.231 357.294,384.231 356.154 C 384.231 355.942,383.966 355.769,383.642 355.769 C 383.318 355.769,382.938 355.466,382.798 355.096 C 381.867 352.637,378.462 352.901,378.462 355.432 C 378.462 356.565,380.133 358.846,380.964 358.846 C 381.245 358.846,381.536 359.030,381.611 359.256 C 381.686 359.481,382.479 359.763,383.374 359.883 C 384.268 360.003,385.000 360.252,385.000 360.435 C 385.000 360.619,385.779 360.769,386.731 360.769 C 387.683 360.769,388.462 360.619,388.462 360.435 C 388.462 360.252,389.193 360.003,390.088 359.883 C 390.982 359.763,391.776 359.481,391.851 359.256 C 391.926 359.030,392.144 358.846,392.335 358.846 C 392.878 358.846,394.231 357.573,394.231 357.062 C 394.231 356.809,394.442 356.532,394.701 356.446 C 395.016 356.341,395.171 355.327,395.171 353.367 C 395.171 350.260,393.530 347.692,391.543 347.692 C 391.153 347.692,390.775 347.516,390.703 347.301 C 390.631 347.085,389.665 346.802,388.555 346.670 C 387.446 346.539,386.538 346.282,386.538 346.100 C 386.538 345.918,386.049 345.769,385.452 345.769 C 382.768 345.769,381.723 341.897,384.256 341.341 C 384.877 341.204,385.385 340.933,385.385 340.739 C 385.385 340.277,387.581 340.278,387.866 340.740 C 387.987 340.935,388.564 341.200,389.149 341.328 C 389.734 341.457,390.381 341.946,390.587 342.415 C 391.090 343.563,393.949 343.677,394.165 342.558 C 394.605 340.272,392.639 337.692,390.457 337.692 C 389.994 337.692,389.615 337.519,389.615 337.308 C 389.615 337.081,388.269 336.923,386.346 336.923 C 384.548 336.923,383.077 337.077,383.077 337.266 M175.000 340.721 C 175.000 340.906,175.521 341.162,176.158 341.289 C 177.772 341.612,180.769 345.044,180.769 346.570 C 180.769 346.773,177.496 346.923,173.077 346.923 C 166.496 346.923,165.385 346.840,165.385 346.346 C 165.385 346.029,165.558 345.769,165.769 345.769 C 165.981 345.769,166.154 345.545,166.154 345.271 C 166.154 344.237,169.177 341.499,170.568 341.273 C 171.313 341.152,171.923 340.903,171.923 340.719 C 171.923 340.535,172.615 340.385,173.462 340.385 C 174.308 340.385,175.000 340.536,175.000 340.721 M272.469 340.720 C 272.583 340.904,273.195 341.158,273.829 341.285 C 275.299 341.579,278.425 344.721,278.721 346.202 C 278.845 346.819,279.096 347.417,279.280 347.531 C 279.746 347.819,279.702 350.000,279.231 350.000 C 279.019 350.000,278.846 350.334,278.846 350.743 C 278.846 351.824,277.334 353.929,275.849 354.914 C 275.141 355.385,274.228 355.769,273.819 355.769 C 273.411 355.769,273.077 355.942,273.077 356.154 C 273.077 356.374,271.923 356.538,270.385 356.538 C 268.904 356.538,267.692 356.379,267.692 356.184 C 267.692 355.990,267.173 355.716,266.538 355.577 C 265.904 355.438,265.385 355.167,265.385 354.977 C 265.385 354.786,264.967 354.525,264.456 354.397 C 263.903 354.258,263.434 353.789,263.295 353.236 C 263.167 352.725,262.900 352.308,262.702 352.308 C 262.504 352.308,262.226 351.659,262.083 350.865 C 261.940 350.072,261.640 349.194,261.417 348.913 C 261.139 348.564,261.136 348.321,261.408 348.144 C 261.626 348.001,261.903 347.255,262.025 346.486 C 262.237 345.141,264.523 342.308,265.397 342.308 C 265.602 342.308,265.769 342.150,265.769 341.957 C 265.769 341.764,266.462 341.489,267.308 341.346 C 268.154 341.203,268.846 340.928,268.846 340.735 C 268.846 340.287,272.193 340.273,272.469 340.720 M306.154 340.720 C 306.154 340.905,306.846 341.166,307.692 341.302 C 308.538 341.437,309.231 341.719,309.231 341.928 C 309.231 342.137,309.398 342.308,309.602 342.308 C 310.264 342.308,312.273 344.534,312.528 345.550 C 312.664 346.094,312.930 346.538,313.119 346.538 C 313.307 346.538,313.462 347.577,313.462 348.846 C 313.462 350.128,313.291 351.154,313.077 351.154 C 312.865 351.154,312.692 351.400,312.692 351.701 C 312.692 352.184,311.540 353.477,309.853 354.888 C 309.547 355.144,308.849 355.466,308.302 355.603 C 307.755 355.740,307.308 356.007,307.308 356.196 C 307.308 356.384,306.096 356.538,304.615 356.538 C 303.135 356.538,301.923 356.387,301.923 356.202 C 301.923 356.017,301.377 355.756,300.709 355.623 C 299.424 355.365,296.154 352.267,296.154 351.306 C 296.154 351.011,295.981 350.769,295.769 350.769 C 295.558 350.769,295.385 349.904,295.385 348.846 C 295.385 347.788,295.558 346.923,295.769 346.923 C 295.981 346.923,296.154 346.598,296.154 346.201 C 296.154 345.804,296.413 345.263,296.731 345.000 C 297.048 344.737,297.308 344.320,297.308 344.074 C 297.308 343.828,297.827 343.321,298.462 342.946 C 299.096 342.571,299.615 342.103,299.615 341.906 C 299.615 341.709,300.308 341.437,301.154 341.302 C 302.000 341.166,302.692 340.905,302.692 340.720 C 302.692 340.536,303.471 340.385,304.423 340.385 C 305.375 340.385,306.154 340.536,306.154 340.720 M333.462 340.720 C 333.462 340.905,334.154 341.166,335.000 341.302 C 335.846 341.437,336.539 341.675,336.540 341.831 C 336.541 341.988,337.053 342.660,337.677 343.326 C 338.301 343.992,338.925 344.987,339.063 345.538 C 339.201 346.088,339.468 346.538,339.657 346.538 C 339.846 346.538,340.000 347.490,340.000 348.654 C 340.000 349.817,339.849 350.769,339.663 350.769 C 339.478 350.769,339.227 351.266,339.106 351.874 C 338.822 353.295,336.757 355.360,335.336 355.644 C 334.728 355.766,334.231 356.017,334.231 356.202 C 334.231 356.795,329.930 356.563,328.398 355.888 C 327.587 355.530,326.923 355.116,326.923 354.968 C 326.923 354.820,326.490 354.590,325.962 354.457 C 325.433 354.325,325.000 353.972,325.000 353.674 C 325.000 353.376,324.720 352.852,324.377 352.509 C 321.718 349.850,324.750 341.905,328.667 341.270 C 329.400 341.151,330.000 340.903,330.000 340.719 C 330.000 340.535,330.779 340.385,331.731 340.385 C 332.683 340.385,333.462 340.536,333.462 340.720 M366.154 340.721 C 366.154 340.906,366.684 341.164,367.333 341.293 C 368.934 341.614,371.214 344.017,372.036 346.250 C 372.267 346.877,371.756 346.923,364.603 346.923 C 357.179 346.923,356.923 346.897,356.923 346.154 C 356.923 345.731,357.096 345.385,357.308 345.385 C 357.519 345.385,357.697 345.168,357.703 344.904 C 357.724 343.910,360.434 341.482,361.763 341.266 C 362.486 341.149,363.077 340.903,363.077 340.719 C 363.077 340.535,363.769 340.385,364.615 340.385 C 365.462 340.385,366.154 340.536,366.154 340.721 " stroke="none" fill="#04d49c" fill-rule="evenodd"></path><path id="path2" d="M230.385 43.646 C 230.385 44.018,231.492 45.408,232.846 46.735 C 234.199 48.062,235.417 49.497,235.552 49.923 C 235.688 50.349,236.052 50.795,236.361 50.914 C 236.670 51.033,236.923 51.395,236.923 51.719 C 236.923 52.043,237.093 52.308,237.300 52.308 C 237.508 52.308,237.786 52.740,237.919 53.269 C 238.052 53.798,238.315 54.231,238.503 54.231 C 238.692 54.231,238.846 54.496,238.846 54.820 C 238.846 55.144,239.106 55.508,239.423 55.630 C 239.740 55.752,240.001 56.049,240.001 56.291 C 240.002 56.533,240.521 57.769,241.154 59.038 C 241.787 60.308,242.305 61.563,242.306 61.827 C 242.307 62.091,242.479 62.308,242.688 62.308 C 242.897 62.308,243.179 63.000,243.314 63.846 C 243.449 64.692,243.691 65.385,243.852 65.385 C 244.012 65.385,244.260 66.163,244.403 67.115 C 244.546 68.067,244.806 68.846,244.982 68.846 C 245.158 68.846,245.405 69.260,245.532 69.765 C 245.672 70.322,246.143 70.780,246.727 70.926 C 247.258 71.060,247.692 71.325,247.692 71.515 C 247.692 71.706,248.175 71.968,248.764 72.097 C 249.354 72.227,250.157 72.760,250.549 73.282 C 250.941 73.804,251.497 74.231,251.785 74.231 C 252.072 74.231,252.309 74.361,252.310 74.519 C 252.312 74.678,252.959 75.240,253.749 75.769 C 254.539 76.298,255.553 77.120,256.002 77.596 C 256.451 78.072,257.014 78.462,257.252 78.462 C 257.490 78.462,258.422 79.258,259.323 80.231 C 262.445 83.602,265.448 86.538,265.774 86.538 C 265.954 86.538,266.224 86.928,266.374 87.404 C 266.523 87.880,267.011 88.617,267.457 89.042 C 267.904 89.467,268.702 90.461,269.231 91.251 C 269.760 92.041,270.322 92.688,270.481 92.690 C 270.639 92.691,270.769 92.957,270.769 93.281 C 270.769 93.605,271.013 93.964,271.311 94.078 C 271.610 94.193,271.959 94.707,272.088 95.220 C 272.217 95.734,272.492 96.154,272.700 96.154 C 272.907 96.154,273.077 96.413,273.077 96.731 C 273.077 97.048,273.231 97.308,273.420 97.308 C 273.608 97.308,273.871 97.740,274.004 98.269 C 274.137 98.798,274.401 99.231,274.592 99.231 C 274.783 99.231,275.053 99.750,275.192 100.385 C 275.332 101.019,275.591 101.538,275.769 101.538 C 275.947 101.538,276.207 102.058,276.346 102.692 C 276.486 103.327,276.745 103.846,276.923 103.846 C 277.101 103.846,277.361 104.365,277.500 105.000 C 277.639 105.635,277.899 106.154,278.077 106.154 C 278.255 106.154,278.517 106.685,278.660 107.334 C 278.802 107.982,279.161 108.978,279.457 109.545 C 279.753 110.113,279.996 110.870,279.998 111.227 C 279.999 111.585,280.173 111.985,280.385 112.115 C 280.596 112.246,280.769 112.689,280.769 113.100 C 280.769 113.510,280.923 113.846,281.110 113.846 C 281.298 113.846,281.568 114.625,281.711 115.577 C 281.853 116.529,282.113 117.308,282.286 117.308 C 282.460 117.308,282.727 118.476,282.880 119.904 C 283.032 121.332,283.304 122.592,283.484 122.704 C 283.664 122.816,283.931 124.764,284.078 127.031 C 284.224 129.299,284.492 131.154,284.672 131.154 C 284.852 131.154,285.000 133.923,285.000 137.308 C 285.000 140.692,284.853 143.462,284.674 143.462 C 284.494 143.462,284.234 145.312,284.096 147.574 C 283.958 149.836,283.693 151.783,283.507 151.901 C 283.321 152.019,283.045 153.197,282.893 154.520 C 282.741 155.842,282.476 157.012,282.303 157.118 C 282.131 157.225,281.867 158.046,281.717 158.944 C 281.567 159.842,281.334 160.663,281.200 160.769 C 280.839 161.053,279.611 164.699,279.613 165.481 C 279.615 165.851,279.456 166.154,279.261 166.154 C 279.067 166.154,278.793 166.673,278.654 167.308 C 278.514 167.942,278.255 168.462,278.077 168.462 C 277.899 168.462,277.639 168.981,277.500 169.615 C 277.361 170.250,277.101 170.769,276.923 170.769 C 276.745 170.769,276.486 171.288,276.346 171.923 C 276.207 172.558,275.947 173.077,275.769 173.077 C 275.591 173.077,275.332 173.596,275.192 174.231 C 275.053 174.865,274.798 175.385,274.627 175.385 C 274.455 175.385,274.206 175.817,274.073 176.346 C 273.940 176.875,273.662 177.308,273.454 177.308 C 273.247 177.308,273.077 177.553,273.077 177.853 C 273.077 178.152,272.947 178.455,272.788 178.526 C 272.427 178.686,270.769 181.032,270.769 181.383 C 270.769 181.526,270.357 182.025,269.853 182.492 C 269.349 182.959,268.818 183.715,268.673 184.171 C 268.528 184.627,268.243 185.000,268.039 185.000 C 267.835 185.000,267.559 185.303,267.425 185.673 C 267.140 186.459,256.770 196.923,256.275 196.923 C 256.091 196.923,255.505 197.419,254.973 198.026 C 254.441 198.632,253.639 199.245,253.192 199.387 C 252.745 199.529,252.282 199.898,252.163 200.207 C 252.044 200.516,251.697 200.769,251.390 200.769 C 251.084 200.769,250.776 200.906,250.705 201.073 C 250.545 201.453,246.648 203.846,246.189 203.846 C 246.003 203.846,245.752 204.106,245.630 204.423 C 245.508 204.740,245.144 205.000,244.820 205.000 C 244.496 205.000,244.231 205.159,244.231 205.354 C 244.231 205.549,243.712 205.822,243.077 205.962 C 242.442 206.101,241.923 206.374,241.923 206.569 C 241.923 206.764,241.663 206.923,241.345 206.923 C 241.027 206.923,240.121 207.269,239.331 207.692 C 238.542 208.115,237.677 208.462,237.410 208.462 C 237.142 208.462,236.923 208.627,236.923 208.829 C 236.923 209.031,236.317 209.310,235.577 209.448 C 234.837 209.587,234.231 209.855,234.231 210.043 C 234.231 210.231,233.885 210.385,233.462 210.385 C 232.707 210.385,232.692 210.128,232.692 197.115 L 232.692 183.846 225.000 183.846 L 217.308 183.846 217.308 209.231 L 217.308 234.615 218.846 234.615 C 219.692 234.615,220.385 234.463,220.385 234.276 C 220.385 234.090,221.856 233.815,223.654 233.665 C 225.452 233.515,226.923 233.252,226.923 233.080 C 226.923 232.908,227.962 232.647,229.231 232.500 C 230.500 232.353,231.538 232.089,231.538 231.913 C 231.538 231.737,232.490 231.475,233.654 231.330 C 234.817 231.184,235.769 230.932,235.769 230.769 C 235.769 230.605,236.548 230.355,237.500 230.212 C 238.452 230.070,239.231 229.792,239.231 229.596 C 239.231 229.400,239.923 229.129,240.769 228.994 C 241.615 228.859,242.308 228.616,242.308 228.454 C 242.308 228.293,242.784 228.045,243.365 227.905 C 244.847 227.547,246.538 226.785,246.538 226.475 C 246.538 226.332,247.058 226.101,247.692 225.962 C 248.327 225.822,248.846 225.563,248.846 225.385 C 248.846 225.207,249.365 224.947,250.000 224.808 C 250.635 224.668,251.154 224.409,251.154 224.231 C 251.154 224.053,251.673 223.793,252.308 223.654 C 252.942 223.514,253.462 223.255,253.462 223.077 C 253.462 222.899,253.981 222.639,254.615 222.500 C 255.250 222.361,255.769 222.087,255.769 221.893 C 255.769 221.698,256.016 221.538,256.319 221.538 C 256.621 221.538,257.104 221.322,257.393 221.058 C 258.021 220.482,259.206 219.707,260.000 219.353 C 260.317 219.212,260.715 218.867,260.884 218.587 C 261.054 218.306,261.443 218.077,261.750 218.077 C 262.057 218.077,262.308 217.907,262.308 217.700 C 262.308 217.492,262.728 217.217,263.241 217.088 C 263.755 216.959,264.269 216.610,264.383 216.311 C 264.498 216.013,264.777 215.769,265.004 215.769 C 265.450 215.769,266.218 215.204,267.228 214.135 C 267.577 213.764,268.041 213.460,268.259 213.458 C 268.476 213.456,269.260 212.765,270.000 211.923 C 270.740 211.081,271.477 210.390,271.638 210.388 C 272.236 210.381,277.139 205.642,280.192 202.121 C 281.038 201.145,282.293 199.775,282.981 199.077 C 283.668 198.378,284.231 197.682,284.231 197.530 C 284.231 197.377,284.447 197.012,284.712 196.717 C 285.812 195.489,286.154 195.016,286.154 194.717 C 286.154 194.544,286.500 194.105,286.923 193.743 C 287.346 193.381,287.692 192.842,287.692 192.545 C 287.692 192.248,287.927 191.915,288.213 191.806 C 288.499 191.696,289.220 190.769,289.814 189.745 C 290.409 188.722,291.016 187.798,291.165 187.692 C 291.313 187.587,291.568 187.067,291.731 186.538 C 291.894 186.010,292.133 185.490,292.263 185.385 C 292.903 184.864,295.385 179.992,295.385 179.255 C 295.385 179.030,295.517 178.846,295.678 178.846 C 295.987 178.846,297.308 176.039,297.308 175.382 C 297.308 175.172,297.466 175.000,297.659 175.000 C 297.851 175.000,298.126 174.308,298.269 173.462 C 298.412 172.615,298.665 171.923,298.831 171.923 C 298.997 171.923,299.241 171.245,299.373 170.417 C 299.506 169.588,299.791 168.852,300.006 168.780 C 300.222 168.708,300.506 167.742,300.638 166.632 C 300.769 165.523,301.019 164.615,301.194 164.615 C 301.369 164.615,301.627 163.750,301.767 162.692 C 301.907 161.635,302.162 160.769,302.334 160.769 C 302.505 160.769,302.765 159.558,302.911 158.077 C 303.057 156.596,303.310 155.385,303.474 155.385 C 303.638 155.385,303.869 154.563,303.987 153.558 C 304.106 152.553,304.370 150.346,304.574 148.654 C 305.054 144.678,305.054 129.938,304.574 125.962 C 304.370 124.269,304.106 122.063,303.987 121.058 C 303.869 120.053,303.638 119.231,303.474 119.231 C 303.310 119.231,303.057 118.019,302.911 116.538 C 302.765 115.058,302.503 113.846,302.329 113.846 C 302.154 113.846,301.893 112.894,301.747 111.731 C 301.602 110.567,301.333 109.615,301.150 109.615 C 300.966 109.615,300.700 108.837,300.557 107.885 C 300.414 106.933,300.154 106.154,299.980 106.154 C 299.805 106.154,299.546 105.375,299.403 104.423 C 299.260 103.471,298.990 102.692,298.802 102.692 C 298.615 102.692,298.462 102.346,298.462 101.922 C 298.462 101.498,298.115 100.505,297.692 99.716 C 297.269 98.926,296.923 98.062,296.923 97.794 C 296.923 97.527,296.750 97.308,296.538 97.308 C 296.327 97.308,296.154 96.962,296.154 96.538 C 296.154 96.115,296.000 95.769,295.812 95.769 C 295.624 95.769,295.357 95.163,295.218 94.423 C 295.079 93.683,294.800 93.077,294.598 93.077 C 294.396 93.077,294.231 92.812,294.231 92.488 C 294.231 92.164,293.982 91.803,293.677 91.687 C 293.373 91.570,293.013 90.969,292.878 90.352 C 292.742 89.736,292.472 89.231,292.277 89.231 C 292.082 89.231,291.923 88.984,291.923 88.681 C 291.923 88.379,291.686 87.895,291.397 87.606 C 291.107 87.316,290.744 86.680,290.589 86.191 C 290.308 85.308,289.830 84.631,288.173 82.779 C 287.697 82.246,287.308 81.576,287.308 81.290 C 287.308 81.004,287.146 80.769,286.949 80.769 C 286.752 80.769,286.488 80.448,286.364 80.056 C 286.239 79.664,285.627 78.842,285.003 78.229 C 284.378 77.617,283.863 76.965,283.857 76.782 C 283.851 76.599,283.154 75.777,282.308 74.955 C 281.462 74.134,280.769 73.374,280.769 73.266 C 280.769 72.750,275.168 67.015,273.071 65.385 C 272.391 64.856,271.275 63.861,270.590 63.173 C 269.905 62.486,269.220 61.923,269.066 61.923 C 268.913 61.923,268.268 61.404,267.633 60.769 C 266.999 60.135,266.296 59.615,266.072 59.615 C 265.848 59.615,265.288 59.226,264.827 58.750 C 263.958 57.853,262.917 57.104,261.923 56.661 C 261.606 56.520,261.208 56.175,261.039 55.894 C 260.869 55.614,260.480 55.385,260.173 55.385 C 259.866 55.385,259.615 55.230,259.615 55.042 C 259.615 54.853,259.183 54.590,258.654 54.457 C 258.125 54.325,257.692 54.060,257.692 53.869 C 257.692 53.679,257.173 53.409,256.538 53.269 C 255.904 53.130,255.385 52.860,255.385 52.669 C 255.385 52.478,254.952 52.214,254.423 52.081 C 253.894 51.948,253.462 51.699,253.462 51.527 C 253.462 51.356,252.942 51.101,252.308 50.962 C 251.673 50.822,251.154 50.588,251.154 50.440 C 251.154 50.293,250.377 49.831,249.427 49.413 C 248.477 48.996,247.698 48.526,247.696 48.370 C 247.694 48.214,247.000 47.975,246.154 47.840 C 245.308 47.705,244.615 47.445,244.615 47.263 C 244.615 47.081,243.923 46.821,243.077 46.686 C 242.231 46.551,241.538 46.297,241.538 46.122 C 241.538 45.947,240.933 45.690,240.192 45.552 C 239.452 45.413,238.846 45.167,238.846 45.006 C 238.846 44.845,238.119 44.597,237.231 44.455 C 236.342 44.313,235.402 44.020,235.142 43.804 C 234.190 43.014,230.385 42.887,230.385 43.646 M171.923 43.802 C 171.923 43.990,171.144 44.260,170.192 44.403 C 169.240 44.546,168.462 44.803,168.462 44.974 C 168.462 45.146,167.769 45.397,166.923 45.532 C 166.077 45.668,165.385 45.927,165.385 46.109 C 165.385 46.291,164.692 46.551,163.846 46.686 C 163.000 46.821,162.308 47.095,162.308 47.295 C 162.308 47.494,161.702 47.771,160.962 47.910 C 160.221 48.049,159.615 48.316,159.615 48.504 C 159.615 48.692,159.443 48.846,159.233 48.846 C 158.613 48.846,155.769 50.158,155.769 50.445 C 155.769 50.590,155.264 50.819,154.648 50.954 C 154.031 51.090,153.430 51.450,153.313 51.754 C 153.197 52.059,152.836 52.308,152.512 52.308 C 152.188 52.308,151.923 52.467,151.923 52.662 C 151.923 52.856,151.404 53.130,150.769 53.269 C 150.135 53.409,149.615 53.679,149.615 53.869 C 149.615 54.060,149.183 54.325,148.654 54.457 C 148.125 54.590,147.692 54.841,147.692 55.016 C 147.692 55.190,147.329 55.448,146.885 55.589 C 146.441 55.730,145.775 56.131,145.404 56.480 C 144.177 57.638,143.072 58.462,142.748 58.462 C 142.571 58.462,142.114 58.808,141.731 59.231 C 141.348 59.654,140.875 60.000,140.680 60.000 C 140.485 60.000,139.806 60.519,139.172 61.154 C 138.537 61.788,137.885 62.308,137.724 62.308 C 137.562 62.308,136.282 63.433,134.880 64.808 C 133.477 66.183,132.218 67.308,132.081 67.308 C 131.749 67.308,128.846 70.223,128.846 70.557 C 128.846 70.701,127.884 71.781,126.709 72.957 C 125.533 74.132,124.283 75.549,123.930 76.105 C 123.577 76.661,123.067 77.254,122.798 77.423 C 122.528 77.592,122.308 77.903,122.308 78.113 C 122.308 78.323,121.875 78.962,121.346 79.532 C 120.817 80.102,120.385 80.779,120.385 81.035 C 120.385 81.291,120.163 81.639,119.891 81.808 C 119.165 82.261,116.923 85.455,116.923 86.037 C 116.923 86.313,116.753 86.538,116.546 86.538 C 116.338 86.538,116.060 86.971,115.927 87.500 C 115.794 88.029,115.550 88.462,115.385 88.462 C 115.219 88.462,114.975 88.894,114.842 89.423 C 114.709 89.952,114.445 90.385,114.254 90.385 C 114.063 90.385,113.793 90.904,113.654 91.538 C 113.514 92.173,113.260 92.692,113.088 92.692 C 112.916 92.692,112.657 93.167,112.511 93.746 C 112.366 94.326,112.126 94.888,111.979 94.996 C 111.497 95.350,109.700 99.123,109.432 100.344 C 109.288 101.001,109.026 101.538,108.849 101.538 C 108.673 101.538,108.406 102.274,108.256 103.173 C 108.106 104.072,107.818 104.913,107.616 105.041 C 107.414 105.169,107.153 105.991,107.036 106.868 C 106.918 107.744,106.688 108.462,106.524 108.462 C 106.360 108.462,106.107 109.327,105.962 110.385 C 105.816 111.442,105.554 112.308,105.379 112.308 C 105.204 112.308,104.941 113.433,104.793 114.808 C 104.646 116.183,104.373 117.308,104.186 117.308 C 103.999 117.308,103.846 117.965,103.846 118.769 C 103.846 119.573,103.680 120.397,103.478 120.599 C 103.275 120.802,102.989 123.093,102.842 125.690 C 102.695 128.287,102.429 130.502,102.249 130.613 C 101.823 130.876,101.823 143.739,102.249 144.002 C 102.429 144.113,102.695 146.329,102.842 148.926 C 102.989 151.523,103.275 153.813,103.478 154.016 C 103.680 154.219,103.846 154.956,103.846 155.654 C 103.846 156.352,103.997 156.923,104.181 156.923 C 104.365 156.923,104.635 158.135,104.781 159.615 C 104.927 161.096,105.197 162.308,105.380 162.308 C 105.564 162.308,105.833 163.260,105.978 164.423 C 106.124 165.587,106.376 166.538,106.539 166.538 C 106.702 166.538,106.953 167.317,107.095 168.269 C 107.238 169.221,107.515 170.000,107.711 170.000 C 107.907 170.000,108.179 170.692,108.314 171.538 C 108.449 172.385,108.697 173.077,108.865 173.077 C 109.032 173.077,109.288 173.614,109.432 174.271 C 109.700 175.492,111.497 179.265,111.979 179.619 C 112.126 179.727,112.366 180.290,112.511 180.869 C 112.657 181.449,112.916 181.923,113.088 181.923 C 113.260 181.923,113.514 182.442,113.654 183.077 C 113.793 183.712,114.067 184.231,114.261 184.231 C 114.456 184.231,114.615 184.478,114.615 184.780 C 114.615 185.082,114.852 185.566,115.142 185.856 C 115.431 186.145,115.800 186.807,115.963 187.326 C 116.125 187.845,116.364 188.356,116.494 188.462 C 116.624 188.567,117.330 189.519,118.061 190.577 C 118.793 191.635,119.529 192.558,119.696 192.628 C 119.863 192.699,120.000 193.007,120.000 193.313 C 120.000 193.620,120.253 193.967,120.562 194.086 C 120.872 194.205,121.241 194.669,121.383 195.117 C 121.526 195.565,122.138 196.428,122.744 197.034 C 123.350 197.640,123.846 198.261,123.846 198.414 C 123.846 198.838,126.901 201.923,127.322 201.923 C 127.526 201.923,127.692 202.170,127.692 202.472 C 127.692 203.123,133.552 209.231,134.177 209.231 C 134.414 209.231,135.341 210.010,136.237 210.962 C 137.133 211.913,138.008 212.692,138.182 212.692 C 138.356 212.692,138.926 213.154,139.449 213.718 C 140.333 214.671,141.275 215.339,142.692 216.014 C 143.010 216.165,143.632 216.671,144.075 217.138 C 144.518 217.605,145.253 218.105,145.709 218.250 C 146.165 218.395,146.538 218.675,146.538 218.872 C 146.538 219.069,146.798 219.231,147.115 219.231 C 147.433 219.231,147.692 219.404,147.692 219.615 C 147.692 219.827,147.931 220.000,148.222 220.000 C 148.514 220.000,148.958 220.248,149.210 220.552 C 149.462 220.856,150.161 221.213,150.764 221.345 C 151.366 221.477,151.954 221.835,152.071 222.139 C 152.188 222.443,152.549 222.692,152.873 222.692 C 153.196 222.692,153.462 222.852,153.462 223.046 C 153.462 223.241,153.981 223.514,154.615 223.654 C 155.250 223.793,155.769 224.059,155.769 224.244 C 155.769 224.429,156.375 224.694,157.115 224.833 C 157.856 224.972,158.462 225.226,158.462 225.397 C 158.462 225.568,158.981 225.822,159.615 225.962 C 160.250 226.101,160.769 226.333,160.769 226.478 C 160.769 226.812,163.661 228.077,164.426 228.077 C 164.742 228.077,165.000 228.239,165.000 228.438 C 165.000 228.637,165.779 228.916,166.731 229.059 C 167.683 229.201,168.462 229.461,168.462 229.635 C 168.462 229.810,169.240 230.070,170.192 230.212 C 171.144 230.355,171.923 230.606,171.923 230.769 C 171.923 230.933,172.702 231.183,173.654 231.326 C 174.606 231.469,175.385 231.734,175.385 231.916 C 175.385 232.098,176.510 232.367,177.885 232.514 C 179.260 232.661,180.385 232.923,180.385 233.095 C 180.385 233.268,181.769 233.529,183.462 233.677 C 185.154 233.825,186.538 234.096,186.538 234.280 C 186.538 234.465,186.798 234.615,187.115 234.615 C 187.622 234.615,187.692 231.538,187.692 209.231 L 187.692 183.846 180.000 183.846 L 172.308 183.846 172.308 196.664 L 172.308 209.482 171.154 209.313 C 170.519 209.220,170.000 209.004,170.000 208.833 C 170.000 208.662,169.481 208.409,168.846 208.269 C 168.212 208.130,167.692 207.870,167.692 207.692 C 167.692 207.514,167.173 207.255,166.538 207.115 C 165.904 206.976,165.385 206.716,165.385 206.538 C 165.385 206.361,164.865 206.101,164.231 205.962 C 163.596 205.822,163.077 205.568,163.077 205.396 C 163.077 205.224,162.644 204.975,162.115 204.842 C 161.587 204.709,161.154 204.431,161.154 204.223 C 161.154 204.016,160.909 203.846,160.609 203.846 C 160.309 203.846,160.006 203.716,159.936 203.558 C 159.741 203.120,157.394 201.538,156.939 201.538 C 156.719 201.538,156.538 201.377,156.538 201.180 C 156.538 200.982,156.165 200.703,155.709 200.558 C 155.253 200.413,154.498 199.882,154.030 199.378 C 153.563 198.874,153.023 198.462,152.830 198.462 C 152.637 198.462,152.193 198.159,151.843 197.788 C 151.040 196.938,150.086 196.154,149.854 196.154 C 149.509 196.154,141.721 188.185,140.798 186.888 C 140.284 186.167,139.635 185.439,139.355 185.269 C 139.075 185.100,138.846 184.774,138.846 184.544 C 138.846 184.315,138.434 183.744,137.930 183.277 C 137.425 182.810,136.895 182.055,136.750 181.599 C 136.605 181.142,136.345 180.769,136.173 180.769 C 136.000 180.769,135.757 180.466,135.633 180.096 C 135.311 179.139,134.505 177.937,133.942 177.577 C 133.678 177.408,133.462 177.018,133.462 176.712 C 133.462 176.405,133.307 176.154,133.119 176.154 C 132.930 176.154,132.667 175.721,132.534 175.192 C 132.402 174.663,132.137 174.231,131.946 174.231 C 131.756 174.231,131.486 173.712,131.346 173.077 C 131.207 172.442,130.947 171.923,130.769 171.923 C 130.591 171.923,130.332 171.404,130.192 170.769 C 130.053 170.135,129.802 169.615,129.634 169.615 C 129.466 169.615,129.218 168.923,129.083 168.077 C 128.948 167.231,128.674 166.538,128.474 166.538 C 128.275 166.538,127.998 165.931,127.858 165.188 C 127.719 164.445,127.452 163.743,127.264 163.627 C 127.077 163.511,126.923 163.080,126.923 162.670 C 126.923 162.259,126.761 161.923,126.562 161.923 C 126.363 161.923,126.084 161.144,125.941 160.192 C 125.799 159.240,125.551 158.462,125.391 158.462 C 125.230 158.462,124.977 157.382,124.828 156.062 C 124.679 154.743,124.401 153.567,124.211 153.450 C 124.022 153.332,123.752 151.946,123.612 150.368 C 123.471 148.791,123.172 147.266,122.945 146.981 C 122.376 146.261,122.381 128.344,122.952 127.635 C 123.181 127.349,123.491 125.774,123.641 124.135 C 123.790 122.495,124.050 121.154,124.219 121.154 C 124.388 121.154,124.646 120.029,124.793 118.654 C 124.941 117.279,125.210 116.154,125.392 116.154 C 125.573 116.154,125.839 115.375,125.982 114.423 C 126.124 113.471,126.395 112.692,126.582 112.692 C 126.770 112.692,126.923 112.260,126.923 111.731 C 126.923 111.202,127.077 110.769,127.265 110.769 C 127.453 110.769,127.720 110.163,127.859 109.423 C 127.998 108.683,128.277 108.077,128.479 108.077 C 128.681 108.077,128.847 107.861,128.849 107.596 C 128.850 107.332,129.093 106.651,129.389 106.084 C 129.685 105.516,130.044 104.521,130.187 103.872 C 130.329 103.223,130.602 102.692,130.792 102.692 C 130.983 102.692,131.248 102.260,131.381 101.731 C 131.513 101.202,131.762 100.769,131.934 100.769 C 132.106 100.769,132.361 100.250,132.500 99.615 C 132.639 98.981,132.893 98.462,133.063 98.462 C 133.233 98.462,133.474 98.159,133.598 97.788 C 133.919 96.831,134.726 95.629,135.288 95.269 C 135.553 95.100,135.769 94.711,135.769 94.404 C 135.769 94.097,135.899 93.845,136.058 93.844 C 136.216 93.842,136.777 93.193,137.304 92.401 C 137.831 91.609,138.480 90.823,138.746 90.654 C 139.013 90.485,139.231 90.175,139.231 89.965 C 139.231 89.550,139.628 89.030,141.250 87.325 C 141.832 86.713,142.308 86.131,142.308 86.030 C 142.308 85.771,148.386 79.615,148.642 79.615 C 148.836 79.615,150.571 78.169,151.757 77.019 C 152.030 76.755,152.430 76.538,152.646 76.538 C 152.862 76.538,153.177 76.321,153.346 76.054 C 153.515 75.788,154.302 75.139,155.094 74.612 C 155.885 74.085,156.534 73.524,156.536 73.365 C 156.537 73.207,156.798 73.077,157.115 73.077 C 157.433 73.077,157.692 72.907,157.692 72.700 C 157.692 72.492,158.126 72.213,158.656 72.080 C 159.416 71.890,159.670 71.522,159.859 70.342 C 159.991 69.519,160.239 68.846,160.410 68.846 C 160.582 68.846,160.839 68.067,160.982 67.115 C 161.124 66.163,161.372 65.385,161.533 65.385 C 161.693 65.385,161.935 64.692,162.071 63.846 C 162.206 63.000,162.469 62.308,162.654 62.308 C 162.840 62.308,163.105 61.702,163.244 60.962 C 163.383 60.221,163.654 59.615,163.846 59.615 C 164.039 59.615,164.310 59.010,164.448 58.269 C 164.587 57.529,164.855 56.923,165.043 56.923 C 165.231 56.923,165.385 56.682,165.385 56.387 C 165.385 56.093,165.644 55.752,165.962 55.630 C 166.279 55.508,166.538 55.144,166.538 54.820 C 166.538 54.496,166.693 54.231,166.881 54.231 C 167.070 54.231,167.333 53.798,167.466 53.269 C 167.598 52.740,167.877 52.308,168.084 52.308 C 168.292 52.308,168.462 52.075,168.462 51.790 C 168.462 51.506,168.808 50.960,169.231 50.577 C 169.654 50.194,170.000 49.716,170.000 49.514 C 170.000 49.312,170.952 48.211,172.115 47.066 C 174.546 44.674,174.869 43.462,173.077 43.462 C 172.442 43.462,171.923 43.615,171.923 43.802 " stroke="none" fill="#fc6404" fill-rule="evenodd"></path><path id="path3" d="" stroke="none" fill="#3cb0d0" fill-rule="evenodd"></path><path id="path4" d="" stroke="none" fill="#bc100bc" fill-rule="evenodd"></path></g></svg>